<?xml version="1.0" encoding="UTF-8"?>
<svg id="Layer_2" data-name="Layer 2" xmlns="http://www.w3.org/2000/svg" viewBox="0 0 413.9 368.58">
  <defs>
    <style>
      .cls-1 {
        fill: #f3e7c4;
        stroke-width: 0px;
      }
    </style>
  </defs>
  <g id="Ikoner">
    <g>
      <path class="cls-1" d="M0,106.48c5.31-.5,10.56,5.58,15.07-.93-4.87-3.11-1.96-7.62-1.7-11.52.16-2.38.15-5.01,2.64-7.27,1.84-1.67,1.58-5.48,2.69-8.16,1.77-4.29,3.78-8.5,5.91-12.63,3.17-6.18,6.52-12.26,9.8-18.38.41-.77.8-2.14,1.29-2.18,6.43-.49,6.7-8.01,11.68-10.1.43-.18.69-.79,1.12-.98,7.17-3.02,12.61-8.84,20.81-10.67,9.69-2.16,18.75-7.06,28.22-10.4,5.23-1.84,10.75-4.02,16.11-3.93,3.61.06,6.94.49,10.32-.99.5-.22,1.4-.18,1.82.13,5.59,4.22,7.45-1.72,9.26-2.92h23.06c.3-.21,1.3-1.53,2.41-1.62,10.28-.9,20.57-1.77,30.87-2.26,3.72-.17,7.49.98,11.25,1.04,2.1.04,4.22-1.33,6.34-1.35,6.5-.07,13,.21,19.5.33,1.11.02,2.24.01,3.32-.2,1.95-.39,4.04-1.5,4.72,3.15,1.57-4.69,3.83-4.13,6.46-3.76,3.42.48,6.95.27,10.43.24,4.87-.05,9.75-.14,14.62-.35,3.36-.15,6.72-.84,10.06-.75,10.8.3,21.6.78,32.38,1.34,5.31.27,10.65.55,15.88,1.4,6.06.99,12.02,2.58,17.99,4.05.81.2,1.42,1.22,2.35,1.1,1.64.36,3.3.65,4.91,1.1,2.52.71,4.98,1.69,7.52,2.28,8.09,1.88,15.82,4.4,21.82,10.58.67.69,1.62,1.19,2.54,1.56,4.65,1.85,6.11,5.8,6.65,10.22.36,2.97,1.14,5.62,2.29,8.47,1.96,4.85,4.81,9.72,3.78,15.56-.37,2.11,1.03,4.5,1.4,6.79.23,1.42.04,2.9.04,4.78,1.07.7,5.26-1.2,3.49,3.73-.54,1.51,2.01,4.16-1.03,6.41,3.08-.74,3.44.42,3.89,2.89,1.29,7,3.31,13.86,4.95,20.8.25,1.07.01,2.25-.02,3.39-.02.78-.31,1.64-.07,2.32,2.14,6.12,1.81,11.85-2.45,17.04-.12.15-.02.48-.02,1.12.77.13,1.63.27,3.08.51-.84,4.94-1.68,9.89-2.51,14.85.05-.03.1-.06.15-.09-.08,1.5-.15,3-.24,4.66.02,0,.58.13,1.52.35-3.73,4.01-.3,8.14-.17,12.79-1.11-.63-1.71-.96-2.91-1.64,2.36,6.04,4.93,11.47,2.58,17.17.76,1.61,1.49,3,2.08,4.45,1.19,2.95,2.46,5.89,3.37,8.93.62,2.07,1.33,4.28-1.18,6.08-.73.53-1.03,2.88-.49,3.73,1.83,2.9,2.23,5.56.28,8.52-.33.5.02,1.41-.17,2.07-.61,2.16-1.32,4.3-1.72,5.56,0,3.85-.24,6.97.05,10.03.55,5.84,1.28,11.68,2.17,17.48.33,2.11,2.03,4.08-.86,5.83-.8.49-1.27,2.26-1.18,3.38.58,6.92-1.73,12.72-5.17,18.69-1.73,3.01-3.66,6.22-4.92,9.44-1.4,3.6-1.44,7.89-1.34,11.87.22,8.98-2.59,17.13-5.61,25.37-1.67,4.57-4.84,7.45-8.22,10.56-3.1,2.85-5.54,6.41-8.2,9.72-3.35,4.16-3.72,4.26-8.98.73.78,1.84,1.2,2.83,1.64,3.84-5.27,6.27-11.21,11.53-20.64,10.74-.07.82-.14,1.71-.15,1.87-2.98.78-5.75,1.03-8.06,2.19-5.99,3.02-12.5,3-18.87,3.81-6.68.85-13.4,1.48-20.11,2.07-5.15.45-10.32.6-15.48,1.03-2.58.22-5.11.85-7.68,1.15-4.83.58-9.69.96-14.5,1.63-2.79.39-5.52,1.21-8.28,1.82-.71.16-1.49.5-2.15.35-6.45-1.47-12.87-3.04-19.31-4.54-.77-.18-1.59-.11-2.38-.17-1.7-.12-3.39-.25-5.09-.37.11-1.38.37-2.77.26-4.13-.06-.78-.54-2-1.12-2.2-3.64-1.23-5.62-4.03-6.22-7.41-1.43-8.09-2.38-16.26-3.58-24.4-.17-1.18-.32-2.77-1.1-3.39-2.17-1.74-2.51-3.96-1.47-6.02,1.06-2.12,2.41-4.55,5.6-4.18.32.04.68-.26.96-.38,1.65-3.99-2.97-8.52,1.24-12.19-2.11-2.88-2.22-8.06-.25-10.03-2.42-1.83-3.72-3.9-2.99-7.26.36-1.64-.85-3.57-1.18-5.41-.38-2.15-.67-4.32-.81-6.49-.14-2.22-.21-4.46,0-6.67.17-1.77.79-3.51,1.21-5.26.4-.04.8-.08,1.2-.12-.79-.36-1.58-.73-1.94-.89-.53-3.94-.61-7.79-1.64-11.36-1.09-3.78,2.14-10.81,6.2-11.73,3.4-.77,6.15-2.02,9-4.47,3.91-3.36,9.14-5.26,13.96-7.44,1.07-.48,3.25,0,4.14.86,3.15,3.01,5.2,2.24,7.52-1.04,2.15-3.03,5.01-5.55,7.23-8.54.77-1.03,1.23-3.21.66-4.15-1.97-3.23-1.01-6.22-.14-9.35,1.04-3.71-.09-4.61-3.27-6.24-3.95-2.02-7.36-1.24-11.39-.63-4.26.64-8.82-.75-13.25-1.22-1.05-.11-2.13-.02-3.18-.13-1.14-.12-2.3-.25-3.39-.58-1.88-.57-3.73-1.89-5.57-1.85-7.06.16-13.11-1.53-17.23-7.75-.21-.31-.65-.55-.7-.87-.66-4.35-1.61-8.69-1.77-13.06-.12-3.22.81-6.48,1.13-8.76,1.28-2.21,2.83-3.73,3-5.39.53-5.32-1.55-11.27,4.25-15.08-.3-3.92,3.07-3.99,5.78-5.03-1.63-1.01-2.95-1.84-4.27-2.66.11-.37.22-.75.33-1.12,2.25.23,4.5.47,6.43.67-.35-2.31-.61-4.1-.88-5.9.39.29.79.58,1.18.87,2.46-.98,4.89-2.05,7.39-2.91,2.42-.83,4.91-1.44,7.86-2.29.03-.24.13-1.14.27-2.37,8.21.77,16.53-1.29,24.49,2.64,4.69,2.31,9.9,1.33,13.96-1.52,3.21-2.25,5.81-5.69,7.91-9.09,1.75-2.83-.34-6.12-4.29-7.71.62-.9,1.19-1.73,1.77-2.56,0-.12.02-.27-.04-.37-2.5-3.95-4.6-8.24-7.62-11.74-3.55-4.09-7.37-8.49-12.03-10.95-6.99-3.7-14.14-7.84-22.75-7.16-2.41.19-4.92-1.46-7.4-1.47-9.03-.05-18.1.91-25.99,5.48-4.8,2.78-8.46,7.46-12.93,10.89-1.34,1.03-3.7.75-5.84,1.11.77.48,1.94,1.2,3.17,1.96-2.61,3.52-5.01,6.5-7.13,9.67-2.64,3.94-3.19,8.43-2.74,13.07.08.86.49,1.77.32,2.57-1.91,8.73.25,17.37.44,26.05.16,7.67.71,15.37.15,22.99-.35,4.77-2.21,9.16-6.21,12.95-2.38,2.25-4.05,5.57-6.93,7.84-2.71,2.13-5.24,4.39-8.86,4.29-5.66-.15-10.18,3-14.97,5.16-3.72,1.68-6.86,4.62-10.51,6.52-2.37,1.23-5.21,1.54-7.8,2.38-2.44.78-5.02,1.39-7.22,2.64-4.45,2.53-4.47,4.8-.9,7.22-.54,2.93-1.28,5.61-1.47,8.32-.29,3.96,1.25,5.3,5.04,5.98,5.51.99,10.93,2.52,16.45,3.45,2.1.36,4.69.34,6.51-.58,7.51-3.8,15.3-3.32,23.11-1.97,1.42.25,2.59,2.31,3.74,3.65,1.56,1.81,2.66,4.26,4.56,5.51,5.11,3.34,7.62,12.8,6.98,16.99-.11.69-.93,1.27-1.42,1.9-.55-.56-1.29-1.04-1.62-1.71-.68-1.38-1.13-2.87-1.82-4.68-4.28,3.66-.65,6.82-.26,9.86.28,2.24,2.07,4.27,2.54,6.53.4,1.95-.13,4.1-.22,6.16-.06,1.4-.18,2.81-.08,4.2.47,6.41,1.15,12.81,1.47,19.23.26,5.3-.34,10.69.31,15.93.51,4.13,2.72,8.02,3.46,12.15.62,3.49-.16,7.21.33,10.73.72,5.26-.28,10.13-3.28,14.24-2.36,3.22-5.68,5.74-8.79,8.78,2.87,1.43,5.62,2.81,8.36,4.18-.18.66-.37,1.32-.55,1.98-3.65-.46-7.31-.91-10.96-1.37-1.13-.14-2.3-.59-3.38-.42-3.86.59-7.42.91-11.28-.99-2.92-1.44-6.66-1.23-10.02-1.79-4.23-.71-8.44-1.39-12.54.62-.51.25-1.26.32-1.79.15-4.7-1.48-9.3-.94-14.07-.03-4.1.79-8.41.46-12.61.84-4.66.42-9.29,1.22-13.95,1.6-1.82.15-3.7-.44-5.56-.57-6.78-.5-13.57-.86-20.33-1.47-1.91-.17-3.77-.98-5.62-1.58-1.18-.38-2.31-1.29-3.47-1.29-4.12-.03-6.67-2.91-9.87-4.75-6.41-3.68-9.19-10.2-13.04-15.81-4.6-6.7-8.92-13.67-12.6-20.91-4.89-9.64-9.09-19.63-13.44-29.54-.57-1.29-.33-2.95-.39-4.44-.32-7.7-.85-15.4-.82-23.11.01-3.69,1.09-7.38,1.69-11.06.95-5.84,2.26-11.66,2.73-17.54.32-3.98-.53-8.06-.91-12.78.36-.16,1.52-.66,3.46-1.5-1.64-.86-2.99-1.57-4.38-2.29-1.12-5.51-4.43-11.13-2.28-17.22.36-.09.73-.18,1.09-.28,1.28,2.3,2.55,4.6,3.84,6.92,2.25-8.22,2.31-16.73.72-25.32-.16-.85-.59-1.96-.23-2.54,2.11-3.46-.79-6.2-1.15-9.28-.22-1.87-.46-3.75-.74-5.61-.76-5.05.91-10.4-2-15.24-.6-1-.03-2.65-.23-3.97-.34-2.24-.86-4.45-1.29-6.67-.21-1.07-.51-2.13-.59-3.21-.4-5.76-.6-11.54-1.18-17.29-.16-1.54-1.4-2.97-2.41-4.98ZM26.83,296.26c.59.87,1.45,1.67,1.72,2.63,1,3.54,1.34,7.34,2.8,10.67,2.24,5.1,5.06,9.97,7.9,14.78,1.37,2.31,3.2,4.41,5.11,6.33,1.95,1.97,4.05,3.95,6.44,5.3,4.43,2.51,9.17,3.97,14.44,4.29,5.18.32,10.25,2.27,15.44,2.74,8.08.72,16.25.55,24.34,1.21,6.77.56,13.47,1.92,20.23,2.63,4.1.43,8.26.27,12.39.4,6.97.22,13.94.44,20.92.71,2.57.1,3.69-1.33,4.65-3.51,1.41-3.21,3.24-6.24,4.84-9.38.28-.54.37-1.18.51-1.79.82-3.47,1.69-6.94,2.41-10.43,1.14-5.51.56-10.88-.18-16.49-1.1-8.24-2.88-16.66-.88-25.09.17-.72.25-1.53.09-2.24-1.11-4.75-2.93-9.4-1.86-14.45.1-.46-.59-1.04-.8-1.61-.37-1.03-.78-2.08-.96-3.15-.63-3.71-.85-7.51-1.8-11.13-1.43-5.44-2.22-5.33-7.49-3.29-5.66,2.19-11.55,4.68-17.46,5.04-6.43.39-13.01-1.45-19.49-2.47-1.19-.19-2.22-1.43-3.41-1.61-3.11-.46-8.61-5.03-8.18-7.98.56-3.81-2.17-4.48-4.18-6.02-.56-.43-1.56-.73-1.66-1.23-.85-4.21-2.56-7.99-5.17-11.39-.36-.46-.38-1.18-.56-1.78-.68-2.31-1.36-4.62-2.02-6.87.39-3.47.55-7.24,1.33-10.88.43-2.02,1.49-4.26,2.98-5.62,3-2.74,6.75-4.66,9.7-7.45,5.15-4.86,11.86-5.21,18.1-6.94,1.06-.3,2.45.7,3.72.96,2.01.41,4.38,2.1,5.27-1.64.2-.82,1.65-2.01,2.38-1.92,4.5.55,8.48-.59,12.49-2.56,3.62-1.78,7.66-2.69,11.3-4.44,1.4-.67,2.62-2.45,3.19-4,1.24-3.37,2.09-6.9,2.91-10.41.17-.74-.45-1.68-.7-2.52-.28.11-.56.23-.84.34-.32,1.19-.65,2.38-.97,3.56-.75-1.09-1.09-2.22-.69-2.95,1.92-3.44,1.53-6.85.81-10.54-.33-1.71.95-3.77,1.63-5.63.71-1.95,1.58-3.85,2.37-5.77-1.76.87-2.73,2.39-3.74,2.42-1.01.03-2.08-1.41-3.12-2.21.17-.23.35-.47.52-.7.56.23,1.13.45,2.56,1.02-.65-2.1-1.18-3.43-1.46-4.81-.37-1.78-1.07-3.72-.67-5.37.69-2.87,2.13-5.56,3.17-8.36.18-.49-.21-1.16-.17-1.73.14-2.08.21-4.18.59-6.21.27-1.41,1.14-2.69,1.51-4.09.72-2.72,1.31-5.47,1.9-8.23.49-2.3,1.38-4.65,1.26-6.93-.32-6.26.43-7.08,6.61-5.9.32.06.68-.14,1.61-.36-1.11-1.99-2.1-3.77-3.09-5.56,1.42-2,2.73-4.83,4.9-6.64,2.26-1.89,5.34-2.79,8.42-4.29-.05-.44-.17-1.46-.28-2.43,4.33-1.49,8.04-5.84,12.79-1.18q.26-4.45,7.29-5.04c1.16-1.25,2.51-2.94,3.92-2.99,5.23-.2,10.49.23,15.73.22,2.39,0,4.08.24,3.4,3.28-.14.62.07,1.31.19,3.18,1.63-2.14,2.58-3.4,4.17-5.49,2.49,1.49,4.99,3.06,7.58,4.49,1.02.56,2.19.99,3.34,1.14,2.24.29,4.72-.19,6.73.59,3.67,1.41,6.91,4.09,10.64,5.13,2.74.77,4.85,1.26,5.14,4.46,1.57-.29,2.83-.52,4.66-.86-.67,1.55-1.1,2.54-1.58,3.66,1.91.16,3.54.29,4.85.4-1.13,2.86-2.1,5.33-2.97,7.54,2.69,1.32,5.33,1.8,6.45,3.37,1.2,1.69,5.82-2.3,4.24,2.77-1.02.07-1.99.13-2.95.19,0,.23-.02.46-.03.69,2.13.85,4.25,1.69,6.94,2.76-1.53,1.32-2.32,2-3.52,3.03,1.69.24,2.84.41,3.84.56.68,3.94,1.26,7.63,1.95,11.29.33,1.78,1.74,3.94,1.14,5.19-2.25,4.65-5.43,8.76-9.61,11.94-2.88,2.19-6.15,3.97-8.64,6.52-1.86,1.91-3.25,2.91-4.99,1.57-3.13,1.43-5.73,2.61-8.33,3.79.07.43.15.85.22,1.28-4.78-1.56-9.85-2.55-14.27-4.82-4.42-2.28-15.68-2.97-19.15.46-2.96,2.93-5.26,6.52-7.77,9.88-.27.37.04,1.16.04,1.75,0,2.94-.13,5.89,0,8.83.09,1.95.35,3.94.87,5.82.67,2.44,1.68,4.69-2.23,5.19-.62.08-1.06,1.49-1.72,2.49,1.61.23,2.56.37,3.96.57-.98,1.54-1.61,2.54-2.5,3.93,7.66,3.01,2.39,7.03.63,11.09,2.9-.84,5.31-1.93,7.81-2.17,5.69-.54,11.51-1.41,17.11-.75,5.56.66,11.76-1.19,16.71,3.16.49.43,1.78-.19,2.56.09,3.66,1.31,8.44,1.78,10.64,4.39,3.36,4,8.58,7.2,6.35,14.97-2.26,7.85,1.98,17.01-3.19,24.8-.96,1.45-2.37,2.76-3.86,3.67-2.18,1.32-4.58,2.32-6.96,3.25-1.27.5-2.7.72-4.07.8-.8.05-1.67-.69-2.45-.61-6.5.73-12.99,1.57-19.97,2.44,1.64,1.61,3.09,3.02,4.54,4.44-.28.47-.56.94-.83,1.42-2.35-.45-4.69-1.1-7.06-1.27-1.07-.08-2.77.47-3.22,1.28-1.22,2.19-1.97,4.65-2.83,7.04-1.11,3.07-2.79,6.11-3.08,9.26-.57,6.2-.36,12.48-.43,18.73-.03,3.08-.54,6.31.18,9.22,1.11,4.49,3.08,8.76,4.65,13.01-2.01,1.69-3.77,3.48-5.82,4.81-2.24,1.45-2.4,2.41-.28,4.18,1.24,1.03,1.86,2.8,2.76,4.24-1.36.11-1.99-.49-2.66-.53-.69-.05-1.42.44-2.13.69.5.58.95,1.64,1.49,1.68,5.09.4,3.37,2.9,2.02,4.7,1.14,3.29,2.09,6.02,3.26,9.42-2.18-.61-3.13-.88-4.08-1.14l-.42.77c1.3,1.13,2.59,2.26,4.18,3.64-1.33.51-2.27.87-3.73,1.44,1.73.68,2.93,1.16,4.52,1.78-.87,1.9-1.66,3.64-2.04,4.48,1.02,2.68,1.8,4.75,2.6,6.81,3.72,9.56,12.43,12.31,21.02,14.01,5,.99,10.56-.72,15.86-1.34,2.72-.32,5.39-1.12,8.11-1.36,5.28-.46,10.59-.64,15.88-1.01,7.57-.53,15.12-1.35,22.69-1.67,11.51-.49,22.1-4.12,32.14-9.34,7.84-4.07,15.35-8.8,22.96-13.32,1.36-.81,2.62-1.89,3.72-3.04,6.97-7.26,9.51-16.87,11.19-26.06,1.74-9.55.64-19.64.6-29.49,0-1.5-1.23-2.98-1.37-4.51-.34-3.64-1.22-7.55-.27-10.89.87-3.03,4.32-4.19,7.96-2.46-.14-1.38-.43-2.37-.31-3.31.79-6.35,1.81-12.66,2.46-19.02.37-3.62.09-7.3.3-10.94.07-1.12.74-2.22,1.25-3.28.26-.54,1.13-1,1.09-1.45-.13-1.71-.52-3.4-.8-5.1-.52-3.15-1.76-6.41,2.29-8.45.85-.42,1.17-1.89,1.85-3.09-1.53-.51-2.49-.83-3.28-1.09,1.03-2.13,1.93-3.97,2.84-5.84-1.92-.69-4.09-.84-5.1-2-1.14-1.3-1.25-3.51-1.8-5.32.41-.12.81-.24,1.22-.37.75,1.6,1.5,3.2,2.56,5.45,1.05-2.04,1.8-3.49,2.63-5.09-1.83-.88-3.25-1.56-4.66-2.25.07-.19.13-.38.2-.57h4.06c.07-.35.14-.71.21-1.06-1.51-.45-3.34-.51-4.47-1.43-2.91-2.37.95-2.62,1.24-3.23-1.21-4.2-2.25-7.8-3.33-11.53,1.15-.14,2.02-.25,2.12-.26-.68-2.39-1.55-4.53-1.83-6.75-.21-1.7.56-3.51.48-5.25-.27-5.51-.73-11.01-1.14-16.86-1.5-.51-3.07-1.58-1.54-4.32.3-.54.11-1.43-.02-2.12-.88-4.43-1.81-8.85-2.81-13.7,2.07.67,3.35,1.08,4.63,1.49.12-.26.25-.53.37-.79-1.01-.72-2.02-1.45-3.1-2.22,3.38-4.01-1.14-4.72-2.96-7.06,2.23-1.6,4.38-3.14,7.24-5.18h-7.47c1.68-1.51,2.66-2.38,3.55-3.18-1.23-.69-3.1-1.13-3.31-1.97-1.24-5.12-2.05-10.34-3.13-15.5-.42-1.99-1.18-3.9-1.96-6.41.61-.13,1.91-.4,4.1-.86-4.66-2.38-6.43-5.35-3.87-9.65.12-.2-.21-.66-.29-1-.36-1.59-.94-3.17-.99-4.77-.12-3.99.09-7.65-3.93-10.6-1.71-1.26-5.49-3.73-2.74-7.6-6.83-1.33-11.03-5.15-13.15-11.57-.47-1.41-2.68-3.53-3.53-3.29-3.5.97-6.14-1.63-9.28-1.59-1.84.02-3.73.5-5.52.23-5.17-.78-10.29-1.89-15.45-2.73-.88-.14-1.91.3-2.79.65-3.45,1.39-6.86,1.41-10.09-.49-1.17-.69-1.95-2.39-3.13-2.66-4.19-.96-8.47-1.63-12.74-2.18-6.67-.86-13.38-1.46-20.05-2.33-4.25-.56-6.57-4.45-4.47-7.73-1.27.32-2.3.58-3.56.9.59,1.38,1.05,2.46,1.63,3.8-2.23.79-4.21,2.04-6.22,2.09-5.49.14-11-.11-16.48-.44-2.7-.16-5.74-1.89-7.99-1.1-6.13,2.16-12.03-3.12-18,.01-.62.32-1.68-.2-2.54-.33-1.38-.21-2.76-.45-4.14-.61-5.53-.66-11.12-1.02-16.56-2.08-2.46-.48-4.54-2.42-6.91.27-.56.64-2.12.51-3.23.53-4.22.08-8.44.02-12.65.14-2.08.06-5.7-.13-5.96.66-1.21,3.75-4.1,3.3-6.81,3.81-6.57,1.24-13.09,2.73-19.67,3.89-1.24.22-2.66-.62-3.08-.73-3.29.75-5.84,1.54-8.45,1.9-9.26,1.26-18.66,1.86-27.37,5.65-7.65,3.33-15.18,6.93-22.78,10.36-4.32,1.95-8.59,4.07-13.4.99-2.67-1.71-4.47.68-6.11,2.21-2.81,2.6-5.03,5.97-8.13,8.12-5.66,3.94-8.74,9.83-12.75,15.03-.82,1.06-2.1,1.76-3.58,2.97-.14.56-.1,2.27-.92,3.32-4.41,5.66-7.26,12.04-9.3,18.85-.32,1.06-.93,2.02-1.4,3.04-.99,2.16-2.03,4.3-2.94,6.49-.47,1.13-.58,2.43-1.11,3.52-2.26,4.69-1.88,6.81,1.88,10.13.63.55,1.01,1.38,1.67,2.32-1.12.82-2.16,2.21-3.07,2.13-3.92-.35-3.78,2.35-4.07,4.82-.45,3.95-.96,7.91-1.26,11.87-.25,3.32-.41,6.66-.25,9.97.13,2.57.82,5.12,1.43,8.62.06.08,1.24,1,1.36,2.05.69,5.88,1.23,11.79,1.59,17.7.09,1.58-1.17,3.3-.92,4.82.94,5.85,2.29,11.63,3.38,17.46.43,2.26.87,4.35-.73,6.73-.89,1.33.26,3.97.31,6.02.05,2.35,0,4.72-.19,7.06-.17,2.17-.86,4.32-.83,6.47.05,3.77.94,7.57.62,11.28-.52,6-2.37,11.92-2.52,17.91-.26,10.2.34,20.43.63,30.65.03,1.07.12,2.48.78,3.11,2.24,2.14,1.85,3.77-.81,5.2,5.64,2.85,7.78,6.16,2.98,9.26ZM283.77,8.08c-.03.47-.06.94-.1,1.41,6.85.64,13.7,1.27,20.62,1.91-.51-4.09-12.94-5.95-20.53-3.32ZM47.85,342.28c-.17.29-.34.57-.51.86.96.89,1.8,1.98,2.9,2.64,3.28,1.96,6.61,3.87,10.05,5.54.77.37,2.18-.07,3.02-.58.43-.26.63-1.88.28-2.23-.59-.59-1.71-.66-2.6-.95-2.37-.77-4.79-1.43-7.1-2.35-2.07-.82-4.03-1.93-6.05-2.91ZM80.11,351.79c4.17,2.72,7.72,2.82,10.77.18-3.73-.26-6.93-3.19-10.77-.18ZM13.41,170.52c.7.19,1.4.38,2.11.56.39-1.51.85-3.02,1.09-4.55.02-.15-1.27-.51-1.96-.78-.41,1.59-.82,3.18-1.24,4.77ZM356.87,348.18c-.22-.45-.44-.89-.66-1.34-2.18.93-4.36,1.85-6.54,2.78.23.51.45,1.03.68,1.54,2.17-.99,4.35-1.99,6.52-2.98ZM12.44,110.22c-.14.43-.28.86-.42,1.29,1.24.46,2.51,1.28,3.73,1.22.6-.03,1.11-1.69,2.22-3.54-2.59.48-4.06.75-5.53,1.03ZM188.7,74.97l1.44,1.52c1.29-1.38,2.59-2.75,3.88-4.13-.34-.32-.69-.64-1.03-.95-1.43,1.19-2.86,2.37-4.29,3.56Z"/>
      <path class="cls-1" d="M191.37,122.89c-.88-1.95-2.43-3.87-2.49-5.84-.09-2.92.86-5.88,1.38-8.82.17-.97.8-2.07.52-2.86-1.44-4.09,1.67-5.5,4.07-7.37,1.89-1.47,3.79-2.91,6.57-5.04.56.36,2.78,1,3.21,2.26.47,1.38-.24,3.69-1.25,4.94-1.52,1.88-4,2.96-5.59,4.79-1.24,1.43-2.74,3.7-2.41,5.24.99,4.73-.73,8.47-3.98,12.69Z"/>
      <path class="cls-1" d="M258.86,85.8c.84,1.39,1.59,2.84,2.53,4.16,1.87,2.59,4.06,4.98,5.67,7.72.67,1.14.19,2.97.23,4.48-1.18-.47-2.68-.63-3.46-1.46-1.86-1.98-3.28-4.37-5.07-6.43-2.2-2.53-1.69-5.2-.99-7.95.36-.18.73-.35,1.09-.53Z"/>
      <path class="cls-1" d="M87.49,55.89c-.37,1.11-.42,2.57-1.18,3.25-2.96,2.66-6.02,5.28-9.33,7.48-1.14.76-3.63.93-4.57.18-1.14-.91-2.29-3.69-1.72-4.57,3.52-5.51,7.42-10.79,11.39-16,1.99-2.62,4.35-4.96,6.59-7.38.57-.62,1.26-1.28,2.02-1.55,5.18-1.83,10.36-3.73,15.63-5.27,3.06-.89,7.01,2.16,7.19,5.31.14,2.49-1.21,3.68-3.76,3.4-2.72-.3-4.71-.3-5.91,3.3-.66,1.98-4.25,2.99-6.53,4.41-3.51,2.19-7.03,4.36-10.54,6.53.24.3.48.61.73.91Z"/>
      <path class="cls-1" d="M377.67,107.07c-1.52,1.52-3.03,3.03-4.55,4.55.3.31.6.62.9.93,1.11-.54,2.23-1.09,3.34-1.63.15.26.31.51.46.77-.39.37-.72.84-1.18,1.08-2.6,1.36-3.68,3.25-3.27,6.37.84,6.42,1.38,12.89,1.89,19.34.58,7.3.91,14.63,1.53,21.93.23,2.69.93,5.34,1.43,8.03-2.82.01-6.36-3.68-6.61-6.52-.44-5.2-.95-10.39-1.53-15.57-.92-8.31-2.16-16.6-2.79-24.94-.38-5.01.48-10.12.19-15.14-.29-5.06-1.34-10.07-1.97-15.12-.24-1.94-.39-3.92-.27-5.86.04-.59,1.12-1.49,1.77-1.53.54-.04,1.52.9,1.66,1.54.81,3.53,3.39,6.64,2.21,10.72-.38,1.32.72,3.06,1.1,4.62.21.87.44,1.76.41,2.64-.03,1-.33,2-.51,3,.95.03,1.91.08,2.86.07.82,0,1.65-.09,2.47-.14.15.29.3.58.45.87Z"/>
      <path class="cls-1" d="M44.05,91.81c2.39-2.59,4.71-5.33,7.3-7.77.66-.62,2.32-.7,3.28-.36,1.21.43,2.18,1.54,4.01,2.94-1.79,1.68-3.42,3.2-5.63,5.27.02.11.25,1.24.49,2.38-.28-.16-.55-.32-.83-.49-1.6,2.3-3.72,4.4-4.71,6.94-2.12,5.44-3.58,11.13-5.46,16.67-3.25,9.59-3.28,19.58-3.78,29.5-.18,3.55-1.1,6.46-4.69,8.89-1.37-4.31-2.77-7.88-1.97-12.15,1.84-9.86,3.34-19.78,4.92-29.68.76-4.73,1.19-9.61,7.25-11.26-.63-.19-1.3-.29-1.88-.58-.72-.35-1.8-.76-1.92-1.31-.12-.57.67-1.41,1.19-2.01.47-.54,1.17-.89,1.7-1.38q2.72-2.53.71-5.61Z"/>
      <path class="cls-1" d="M139.71,327.97c2.28-1.43,4.76-2.64,6.81-4.34,3.59-2.97,6.97-6.2,10.33-9.45.64-.62,1.2-1.94.98-2.7-1.16-3.99,1.67-6.72,2.79-10,.37-1.08.32-2.47,0-3.59-.73-2.58-1.83-5.05-2.6-7.62-.75-2.5-.82-5.3-2-7.54-2.28-4.36.74-3.82,3.2-3.97.6-.04,1.22.14,1.72.21,3.44,7.58,5.14,15.39,4.37,23.55-.4,4.28-.68,8.85-2.4,12.66-3.68,8.14-10.78,12.55-19.32,14.58-1.13.27-2.46-.34-3.7-.55-.06-.41-.11-.82-.17-1.23Z"/>
      <path class="cls-1" d="M349.57,42.47c-4.15-.58-7.59-3.98-11.85-6.47-.23.11-.79.35-1.3.66-1.7,1.04-3.37,2.53-5.27.38-1.88-2.14-3-7.84-1.41-8.61,1.82-.89,4.49-1.37,6.3-.71,12.44,4.53,20.73,13.4,25.54,25.61.53,1.36.74,2.9.82,4.37.07,1.29-.26,2.6-.41,3.9-1.39-.98-3.37-1.66-4.05-3-1.81-3.58-2.92-7.51-4.61-11.17-.77-1.67-2.24-3.01-3.76-4.98Z"/>
      <path class="cls-1" d="M236.78,169.13c-3.04-.4-4.06-2.25-3.29-5.92.84-3.96,2.93-8.26,2.05-11.81-.89-3.61-.45-5.86,2.09-7.54,2.49-1.64,5.5-2.54,8.37-3.48.52-.17,1.98.92,2.11,1.6.18.92-.2,2.38-.88,2.96-4.23,3.54-5.52,7.57-4.13,13.12.69,2.76-.41,6.23-1.53,9.04-.45,1.13-3.13,1.38-4.79,2.03Z"/>
      <path class="cls-1" d="M35.33,277.44c.79,1.33,1.13,1.72,1.27,2.17,1.94,6.21,3.58,12.53,5.87,18.6,1.74,4.62,4.4,8.9,6.45,13.42.5,1.1.24,2.55.33,3.84-1.56-.44-3.91-.4-4.55-1.42-2.55-4.08-5.85-7.87-6.67-12.85-1.14-6.92-2.21-13.86-3.24-20.8-.1-.65.23-1.36.54-2.97Z"/>
      <path class="cls-1" d="M301.79,345.99c2.65-.27,5.16-1.05,7.47-.66,8.08,1.37,14.81-1.88,21.51-5.56,1.15-.63,2.45-1,4.06-1.63-3.11,6.28-16.24,12.08-26.77,12.11-2.45,0-5.12.02-6.27-4.26Z"/>
      <path class="cls-1" d="M68.96,104.84c-.93-.43-1.99-.7-2.75-1.33-1.91-1.61-3.7-3.37-5.49-5.12-.57-.56-1.51-1.4-1.38-1.89.28-1.1.87-2.5,1.76-2.99,5.2-2.88,10.6-1.79,14.19,2.76.49.62.66,1.96.31,2.6-.29.54-1.55.68-2.4.76-2.08.18-4.18.23-7.3.38,1.78,1.88,2.67,2.82,3.56,3.76-.16.36-.33.72-.49,1.08Z"/>
      <path class="cls-1" d="M370.97,316.67c-3.78,4-7.41,8.17-11.41,11.95-2.32,2.2-5.11,4-7.92,5.55-2.21,1.22-4.71,1.22-6.97-.67,8.7-6.02,17.1-11.84,25.5-17.66.27.28.53.55.8.83Z"/>
      <path class="cls-1" d="M196.2,34.84c1.29-2.02,2.01-4.14,3.48-5.11,1.12-.73,4.22-.58,4.67.2,1.47,2.56,3.32,3.37,6.07,3.31.85-.02,1.73.84,3.03,1.53-3.49,1.99-6.16,3.96-9.14,5.13-4.65,1.82-4.4-4.15-8.11-5.06Z"/>
      <path class="cls-1" d="M303.08,37.46c1.49,2.3-.44,6.08-3.66,6.55-2.55.38-3.42,1.67-4.41,3.76-.57,1.2-2.51,2.12-3.97,2.37-.65.11-2.49-2.05-2.28-2.66.41-1.21,1.93-2.01,2.9-3.07,1.33-1.45,2.79-2.85,3.8-4.52,1.44-2.38,1.17-2.36,3.03-.46,2.72,2.78,2.94-1.01,4.59-1.97Z"/>
      <path class="cls-1" d="M255.18,246.59c-4.37.23-4.84-2.29-4.71-4.2.09-1.31,1.73-3.32,2.98-3.57,2.49-.51,4.61,1.29,4.41,3.77-.13,1.62-2.03,3.1-2.68,4.01Z"/>
    </g>
  </g>
</svg>