<?xml version="1.0" encoding="UTF-8"?>
<svg id="Layer_2" data-name="Layer 2" xmlns="http://www.w3.org/2000/svg" viewBox="0 0 369.63 372.85">
  <defs>
    <style>
      .cls-1 {
        fill: #f3e7c4;
        stroke-width: 0px;
      }
    </style>
  </defs>
  <g id="Ikoner">
    <g>
      <path class="cls-1" d="M346.29,354.77c-1.36.37-1.62-.1-1.88,1.44-.24,1.48-1.6,2.44-2.13,2.74-.29-.06-10.13,3.08-10.11,3.35-3.27.46-8.72,2.39-8.03,2.85-1.96.23-4.74-1.7-4.93,2.46-.2-.28-2.01.79-2.9,1.25-1.39.72-2.93,1.14-4.41,1.69-.15-.31-3.16,1.6-3.9,1.78-2.31.56-4.85,1.13-6.79-1.09-.45-.51-5.99-4.1-6.04-3.22-3.91-.44-7.84-.83-11.74-1.38-.79-.11-1.5-.84-2.21-1.35-2.75-1.98-3.65-1.77-4.92,1.37-1.49-.36-2.99-.84-4.53-1.06-2.13-.31-4.46-1.05-6.39-.5-3.81,1.08-18.6-.54-18.82-.82-2.07-2.66-4.9-1.04-7.32-1.38-1.84-.26-3.82-.12-5.63.29-2.71.62-16.86-.18-17.13.5-2.42-.5-6.6.09-6.35.42-3.62.25-7.33.68-11.04.7-2.91.02-5.83-.5-8.75-.71-.61-.04-1.24.21-1.85.35-4.14.96-8.31,1.11-12.49.3-.66-.13-14.96,1.07-17.05,1.16-2.78.12-5.78.16-8.33-.76-2.64-.96-5.08.2-7.6-.39-3.87-.9-7.81-1.49-11.73-2.19-.45-.08-.94.06-1.39,0-.88-.12-1.75-.31-2.58-1-1.05.23-2.11.43-3.15.68-1.89.45-3.76,1.05-5.68,1.33-.9.13-1.88-.42-2.84-.53-2.84-.31-5.68-.57-8.52-.82-1.41-.12-2.84-.05-4.23-.28-5.02-.83-9.99-2.04-15.04-2.55-4.08-.42-8.25.07-12.38-.06-2-.07-3.96-.79-5.96-.93-1.36-.09-3.17-1.07-3.96,1.22-.1.28-1.24.42-1.8.27-.77-.21-2.26,3.19-6.64,4.77-2.47.89-5.02,1.4-7.37-.75-.65-.59-2.06-.77-2.99-.56-2.68.62-4.1-1.47-5.86-2.59-4.12-2.62-8.08-5.49-12.03-8.36-1.96-1.43-3.55-3.46-5.65-4.58-1.98-1.06-4.59-2.08-6.6-1.64-2.02.44-3.1.12-3.98-1.3-.93-1.5-.46-2.9,1.08-3.86.26-.17-2.16-8.07-2.32-11.6-.08-1.85.89-1.7,1.66-1.72.59-1.01,1.2-2.55,1.52-2.49,1.66.3,3.36.81,4.81,1.66.75.44,1.09,1.7,1.45,2.65.8,2.11,1.22,4.22,3.88,5.21,1.94.73,3.35,2.77,5.23,3.81,2.2,1.22,4.66,1.98,6.99,2.98,1.58.68,3.12,1.44,4.68,2.15.49.23,1.03.69,1.48.62,3.89-.63,6.67,2.74,10.37,2.82.58.01,2.11.69,2.43.27,2,1.65,8.87-2.28,5.09-3.2,2.51-2.64,4.32-.29,5.86.66,1.04.63,1.85,1.26,3.13,1.55,1.57.35,3.68,1.46,3.83,1.45,1.06-.04,2.13.19,3.2.34-.02.21,4.37,3.07,6.42,3.28,2.38.24,4.79.13,7.17.34,2.54.23,5.06.65,7.59,1,1.34.18,2.52.12,3.78,1.32.99.94,3.26.5,4.96.72.92.11,1.83.29,2.74.47.45.09,1.04.5,1.31.34,2.3-1.34,4.45-.78,6.28.46.89-.85,1.58-1.5,2.26-2.15.68.88,3.32,2.71,3.82,2.31,1.45-1.15,2.46-1.04,4.16,0,1.14.7,3.3-.27,5-.49.15-.02,5.43,2.63,5.37,1.67,2.49.24,4.93.47,7.36.7,0,.31,3.04,1.01,4.84.93,2.59-.11,5.21.52,7.81.86.3.04.58.24.83.35,1.69-2.06,4.02-2.54,6.34-2.44,2.47.11,4.79.79,7.32-.4,1.4-.66,3.35-.12,5.28-.12-.02-.06,2.5.21,3.59.07,2.73-1.47,5.6-1.54,8.65-.66.62.18,1.39-.06,2.06-.25,1.14-.32,2.44-1.34,3.33-1.04,3.38,1.12,6.21-1.46,9.42-1.04,1.1.14,2.2.27,3.31.32,1.26.06,2.53.01,3.8.01.18.5,1.97.85,1.59.03,3.47,0,6.66.04,9.86-.03.75-.02,1.48-.54,2.25-.64.45-.06.95.25,1.9.53,2.34-1.7,5.17-.55,7.6.23,1.17-.62,2.08-1.42,3.07-1.56,2.6-.35,5.24-.55,7.87-.54,2.75,0,5.5.26,8.24.54.41.04.74.83.82.93,2.11.36,3.94.66,5.77.97-.03.13,5.42.24,8.16.43,3.76.27,7.51.8,11.26,1.21.31.03.78-.18.93-.03,2.08,2.02,3.89-.22,5.82-.35,2.03-.13,4.07-.33,6.09-.62,3.18-.45,6.35-.97,9.51-1.55.41-.08.83-.67,1.04-1.13.65-1.44,1.01-3.05,1.84-4.35.65-1.01,1.86-1.66,2.8-2.49.64-.57,1.45-1.08,1.83-1.8.8-1.54,1.42-3.1,3.65-2.34.19.07.66-.09.66-.12-.15-3.02,2.82-1.53,3.88-2.72.65-.74.99-1.76,1.68-2.45.51-.51,1.49-.54,2.03-1.04,2.94-2.7,5.8-5.48,8.69-8.22,2.45-2.32,3.82-5.4,5.73-8.1.5-.7,1.21-1.25,1.75-1.93.69-.87,1.32-1.78,1.94-2.71.47-.7.72-1.62,1.33-2.13,2.3-1.92,3.52-4.51,5.1-6.96,1.94-3.01,2.71-6.58,5.1-9.42.75-.89,2.07-2.58,2.09-3.97.03-2.1-.67-4.23-1.19-6.31-.64-2.52-1.73-4.97-2.05-7.52-.5-3.97-.52-7.99-.74-11.99-.18-3.35-.05-3.5,3.12-4.06.19-.03-.97-.65-2.06-.65.56-2.58,1.12-4.89,1.57-7.23.52-2.74,1.01-5.33-.52-8.15-.88-1.61-.49-4.02-.37-6.04.21-3.45.67-6.89,1-10.34.6-6.28,1.22-12.55,1.76-18.83.11-1.27-.18-2.58-.06-3.85.07-.66.64-1.27.34-1.87-.08-1.12-.17-2.24-.24-3.37-.09-1.32-.17-2.64-.3-4.62.76-.71.17-1.89-.4-3.49-.62-1.74-.18-3.88-.05-5.84.35-5.22.98-16.43.74-16.67-1.31-1.3-.34-1.89.39-2.25-.44-2.92-1.08-5.68-1.21-8.45-.11-2.36.38-4.75.6-7.13-.2-.04-.41-.08-.61-.12.47-.31-.2-3.36.37-4.98.29-.83-.5-2.04-.21-2.87.71-2.08-1.73-3.72-.3-6.13.83-1.4-.19-3.89-.37-5.89-.05-.57-.1-1.14.08-1.73-1.46-2.81-1.56-10.22-2.44-10.11.42-.62.71-1.05,1.02-1.51-3.41-2.04-1.64-5.84-2.98-8.58-.24-.48-.46-1.1-.38-1.6.63-3.66-.93-6.91-1.76-10.31-.18-.75.07-1.6.11-2.39-.65-2.02-1.51-4.13-1.93-6.33-.16-.84.49-2.14,1.19-2.75,1.23-1.06,1.16-2.3.42-3.15-.68-.79-2-1.08-3.08-1.46-.6-.21-1.29-.17-1.94-.24.2-.54.39-1.08.59-1.61-.19.04-.38.09-.57.13-.35-1.59-.82-3.16-1.01-4.77-.26-2.12-.23-4.28-.45-6.41-.22-2.17-.54-4.32-.89-6.47-.32-1.96-.72-3.91-1.14-6.11.8.26-1.75-3.15-.02-6.24-.03-.06-.08-.38-.24-.46-3.34-1.57-3.84-5-5.24-7.87-.46-.95-1.39-1.66-1.94-2.58-2.11-3.53-4.12-7.12-6.26-10.63-.32-.53-1.36-.63-1.66-1.16-1.63-2.85-4.41-3.85-7.23-4.93-.48-.18-.67-1.26-.88-1.96-.29-.95-3.28-1.14-4.65.14-1.31-.72-2.96-1.69-4.66-2.55-.54-.28-1.28-.17-1.83-.44-.72-.35-1.33-.91-2-1.35-.42-.28-1.03-.85-1.27-.73-2.23,1.1-4.86.87-6.66-.74-.12-.1-.19-.3-.32-.34-2.6-.79-5.2-1.56-7.81-2.32-.29-.09-.64,0-.93-.1-2.04-.6-4.08-1.22-6.18-1.86,1.88-2.5,7.27-1.4,4.01-2.52-2.36-.81-8.13-.27-8.67.13-.53.39-.96.89-1.49,1.27-.07.05-4.98.38-5.8.09-.93-.33-1.63-1.26-2.48-1.85-.57-.4-6.88-.28-7.27.52-2.45-.61-5.51-2.2-8.31-1.84-3,.39-6.27-2.22-9,.55-.76-.16-1.72-.69-2.38-.44-1.57.61-4.01.39-4.25,1.71-1.14-.64-3.81-.74-4.28.09-1.06-.46-5.5-2.02-6.64-.86-.25.26-3.91.65-4.06.78-.5-.48-3.74-.66-4.33-.79-.96-.21-2.04-.61-2.92-.37-2.24.63-8.68-1.5-9.25-1.08-1.24-1.1-2.24-1.94-4.08-.46-1.01.81-3.05.59-4.59.44-1.38-.14-2.72-.81-4.07-1.25-.23-.07-.44-.28-.65-.28-3.55.06-7.1.19-10.66.2-2.47.01-4.95-.25-7.42-.15-3.11.12-5.97,4.8,1.33,5.94v3.73c-.87-.08-1.95-.18-3.18-.3-.53-1.55-2.21-1.85-3.19-.88-1.95-.09-3.41-.08-4.86-.25-1.44-.17-2.96-.29-4.25-.86-1.19-.53-3.38-2.36-3.83-1.49-1.73-1.45-4.59-.67-7.95-.91-2.13-.15-4.65-1.17-4.49-.61-1.93-.49-3.86-1.76-5.46.6-2.38-1.16-6.96.51-6.84.95-2.67-.11-3.29-1.63-3.09-.38-2.11-.28-4.2-.78-6.3-.79-4.61-.02-9.23.18-13.84.36-1.3.05-2.62.59-3.87.44-1.03-.13-6.87.04-9.63-.97-1.99-.73-4.3-.59-6.45-.87-.82-.11-1.62-.33-2.51-.51.47-.9.8-1.51,1.16-2.21.48.18.96.37,1.03.4.97-.98,1.63-2.21,2.51-2.42,1.96-.45,4.03-.41,6.06-.52,1.74-.1,3.48-.18,5.21-.17.96,0,1.92.22,2.88.33,0,.28.95,3.16,2.14-.13,2.71,1.15,5.21,1.9,7.95-.09,1.07-.77,2.87-.73,4.33-.66.54.02,3.04,1.57,3.86,1.47.79-.1,4.57-.17,5.45-.52,2.97-1.17,4.6-1.53,4-2.27h8.15c1.24-.55,2.79-1.25,4.9-2.2-.51,1.03,11.7.99,11.75.42,2.55.15,4.95.34,7.34.41,1.04.03,2.09-.33,3.13-.3,1.21.04,2.41.31,3.61.48.06.23,1.28-.5,2.06-1.34.5.76,1.86,1.48,2.13.86.46,1.09,9.44-2.26,10.26.33,1.76-.12,3.28-.38,4.76-.25.49.04,2.42.74,2.97-.13,1.74.62,16.86.35,17.31-.52,1.51.41,4.02-1.79,5.42,1.54.6-.34,1.09-.8,1.66-.91,1.38-.28,2.79-.57,4.18-.56,1.48.02,2.96.38,4.68.63.26,2.1,2.4.3,3.21.13,1.95-.4,9.13.48,9.69-.17,1.04-1.2,9.37.33,11.17-.76-.35.76,6.85,2.25,8.89,1.96,1.55-.22,5.7.69,6.49.33,1.08-.5,3.67-.25,4.27-.77,0,.84,6.5-.11,8.31.88.82.45,1.97.35,2.98.41,3.44.2,6.88.37,10.32.55,1.08.06,2.16.08,3.23.22,4.09.53,8.2.33,12.24,1.95,3.88,1.56,8.21,1.97,12.31,3.04.9.23,1.58,1.27,2.48,1.61,1.59.6,3.24,1.12,4.91,1.39,3.8.61,7.19,1.98,10.04,4.64.73.68,1.72,1.22,2.69,1.5,4.24,1.24,8.55,7.07,8.64,6.35,2.6,1.13,3.43,5.61,4.75,6.12-.58,1-.15,4.84.81,5.91.29.69.77,1.47.95,2.32.12.55,0,1.35-.35,1.75-.48.54-.91,2.49-.2,3.1-1.36.34-3.09,2.74-2.36,3.64-.22.32,1.54,5.17,1.7,5.21-.23,1.12-.46,2.24-.7,3.4.59,1.72,1.25,3.65,1.9,5.57-.61.5.62,5.75,1.64,6.08-.53.81.59,3.23.43,3.33-.94.63,2.76,7.7,1.69,9.76-.29.56.17,1.52.3,2.29.37,2.17.8,4.33,1.05,6.52.04.39-.72.87-1.3,1.53,1.09.07,1.99.12,2.31.14,0,1.83-.15,3.34.04,4.81.18,1.39.7,2.73,1.14,4.33-.28.68-.68,1.66-1.12,2.73.87.35,1.52.61,2.26.9-1.21,1.43,1.55,4.22-2.15,4.75,4.53,3.37,4.64,7.82,3.99,12.51-.05.35.08.76.24,1.09,1.12,2.33.58,4.16.99,3.72.26,3.8.6,7.39.71,10.98.05,1.55.37,4.67,1.11,4.57.09.92.17,1.7.24,2.42-.57.24-1.09.45-1.61.66.53,1.01,1.05,2.02,1.85,3.56-.86.92-2.06,4.93-1.49,6.12-1.22,0,1.48,12.97,3.31,12.77-.42.58-1.59,7.05-.49,7.52.13.06.23.18.11.08-1.38.91-.01,18.39.01,18.61-1.02.42-.62,4.58-2.45,6.17.75,1.26,1.59,4.99.64,5.72.69.77,1.2,1.34,1.78,1.99-.43.46-.89.95-1.55,1.66.91.86,1.63,4.79,3.45,4.88.02.26.04.51.05.77-1.53.43-.53,5.54-.15,5.39.26.88-.49,4.26,2.31,3.15.4,1.86-.73,6.44-.73,6.94-1.46.31-1.62,4.31-.79,4.21.3,3.54-3.44,12.54-3.16,15.29-2.27.63-5.41,12.85-3.88,16.32.62.87,2.94,11.27,2.27,11.7-2.63-.42,1.46,21.72,2.31,22.78-1.03.53,1.42,9.77.09,12.58-1.03.58-2.34,7.57-1.27,7.64-.18,1.72-3.71,8.44-3.39,9.54-1.82,1.61-10.97,19.45-10.82,20.32-1.4.49-3.83,3.48-3.89,4.65ZM42.74,354.34c2.55,5.07,8.2,7.7,14.61,6.82,1.32-.18,2.43-1.97,3.89-3.23-1.91-.24-3.24-.22-4.45-.61-2.57-.82-5.41-.17-7.87-2.15-1.28-1.03-3.75-.57-6.18-.83ZM326.64,20.42c-.18.21-.35.41-.53.62.11.3.12.71.33.89.76.65,1.97,1.05,2.32,1.85,1,2.3,2.79,3.16,5.02,3.81,1.84.54,2.99,1.83,1.52,4.59,1.69-.45,2.86-.76,4.03-1.07-.54-1.4-.85-2.98-1.71-4.16-.69-.94-2.04-1.41-3.13-2.04-2.61-1.51-5.24-3-7.86-4.5ZM315.84,350.98c2.25,3.22,4.97,4.32,8.33,3.5-1.01-.3-1.93-.56-2.86-.83,1.63-1.2,3.14-2.18,4.47-3.35.94-.83.95-2.25-.39-2.37-1.7-.16-4.73.04-4.98.81-.82,2.51-2.68,1.95-4.58,2.25ZM211.54,359.5c-1.52-.62-3-1.38-4.57-1.83-1.19-.34-2.52-.49-3.74-.34-.68.08-1.66.88-1.78,1.49-.11.58.61,1.78,1.17,1.93,1.08.28,2.6-.47,3.41.04,2.41,1.53,3.69-.98,5.51-1.3ZM360.15,222.67c.36-1.41.63-2.27.78-3.15.08-.5.04-1.46-.08-1.48-.64-.12-1.38-.15-1.97.08-.39.15-.88.85-.81,1.22.21,1.24.65,2.43,1.06,3.82.35-.17.95-.45,1.02-.48Z"/>
      <path class="cls-1" d="M322.74,230.83c-.07,1.22-2.85,4.29-2.32,4.44-.51,1.36.04,6.24.89,7.33-.1.21-.19.43-.29.64-.96-.15.59,1.93.76,2.25.13.26.12.59.19,1.05-1.33.16-2.41,3.15-1.77,4.63-1.5.42.64,1.87.07,5.36-.34,2.11-2.57,1.94-1.96,2.48-.69.53-.94,2.18-.64,2.33,0,3.63,1.22,11.51,1.66,11.69-.88,2,.02,5.04,1.04,4.76.07.13.14.26.21.39-1.53,1.25-4.03,6.75-3.39,6.75.17.9.31,1.65.43,2.32-1.17.61-1.68,5.51-1.05,5.36-.42.94-1.75,5.55-1.26,5.9-.7.72-1.46,1.64-2.37,2.38-.62.5-5.86,19.46-6.85,19.66-1.39.29-2.71.86-4.08,1.28-.95.29-2.04.94-2.85.69-2.12-.65-13.71,2.18-14.82,2.44-1.3.3-2.62.51-3.9.87-1.23.35-3.23-.93-3.8-2.11-.26-.55-9.02-.56-9.01-.27-1.6.11-13.97,1.12-14.18,1.3-.71-.51-1.42-1.02-2.3-1.66-.25.29-.75.86-1.33,1.54-2.78-.53-17.59,1.95-17.96,1.98-1.28.09-14.07,6.02-14.84,6.46-.77.44-1.77.44-2.66.68-.82.22-6.25.66-6.92.62-1.48-.09-2.96-.13-4.43-.24-3.05-.23-6.09-.49-9.15-.78.06.68.24,1.62-1.86,1.3-3.82-.59-7.75-.47-11.6-.9-2.07-.23-4.09-1.01-6.27-1.58.47-.41-2.99-.33-2.34-.12-.01.17-4.1.09-6.31-.13.18-.5-6.95-1.18-10.6-1.82-1.07-.19-2.17-.23-3.62-.38-.42-1.2-1.56-1.68-3.23-.86-.48.23-1.11.56-1.55.42-2-.61-6.72-2.31-7.06-2.21-2.58.74-5.56-1.92-6.1-1.17-1.61-1.29-6.56-3.81-7.51-3.08-2.39-.57-4.89-1.3-7.44-1.74-1.55-.27-2.66-.76-3.36-2.26-.27-.56-1.11-.85-1.99-1.48.25,1.21.41,1.96.62,2.99-2.54-1-6.91-2.29-6.99-2.1-.13-.5-12.6-.49-13.05.39-1.65-.63-3.33-1.27-5.84-2.23-2.53.78-9.26-3.43-9.99-3.55-1.11-.18-2.23-.3-3.44-.46.39-1.57-11.76-5.48-15.87-11.39.29-.69,2.51-4.67,1.04-5.29.08-.2.35-2.08-.64-2.23-.31-.89-.68-1.98-1.07-3.06-.24-.66-.5-1.3-.75-1.95.69.21,1.64-.7,1.16-.78-2.17-.37-9.91-7.86-10.67-8.52.56-1.22.25-3.61-.9-3.83,1.35-1.23.98-4.4.43-4.11-.13-.19-.26-.39-.39-.58,1.32-.83,1.83-3.09.47-3.21.49-1.17.93-2.22,1.39-3.32.19.17,2.54-5.71,1.58-6.1.23-.44-.85-2.2-1.44-2.56.89-1.53,1.09-6.69,1.62-8.41-.5-.05-1.53-.15-2.38-.23.11-1.64.22-3.34.35-5.04.04-.53.47-3.28-.45-3.66.54-1.23.11-4.17-.85-4.39.66-1.3-3.86-5.72-4.11-5.76-.26-2.1-.57-3.97-.7-5.85-.04-.6.42-1.23.67-1.92-1.43-1.5.21-7.65-.53-8.53-1.61-1.93-.13-8.88-.5-8.92-.42-1.57-2.41-5.44-2.92-7.62-.24-1.05-1.12-1.96-1.83-3.11,1.3.33,1.7-4.8,2.57-5.54-.09-.16-.19-.32-.28-.49,1.09.08,2.7-.96,2.08-1.55,0,.28-.05.11,0,.07.49-.39.99-3.17.54-4.37-.94-2.54-.65-4.98.43-7.44.2-.45-.48-1.21-.44-1.81.09-1.54-1.01-3.17.56-4.67.36-.34-.19-1.73-.45-2.6-.45-1.52,1.18-3.35-.71-4.69-.18-.13-.13-.79.01-1.12,1.15-2.73,1.65-5.47.87-8.43-.17-.64.56-1.52.77-2.03-.31-1.65-.61-3.16-.91-4.77.55-.1.87-3.78.23-3.93-.02-.11-2.14-5.17.28-7.77.22-3.29-1.13-11.7-.15-13.93.78-1.78-.31-10.12-2.01-11.67,1.04-1.1,3.62-1.02,1.53-3.08.72-.22,2.13-8.04-.35-8.25,1.17-3.21,2.54-6.23,3.34-9.38.53-2.07.24-4.34.34-6.95-.1.03,13.28-16.12,12.31-16.38,1.51-.49,2.39-.93,3.32-1.05,2.14-.28,3.46-1.55,4.87-3.06.68-.72,2.17-1.34,1.7-1.54.9-.71,1.75-1.23,2.4-1.93.95-1.01,5.49-1.28,6.62-.64.89.5,2.16.65,3.19.5,1.94-.29,3.87-1.39,5.74-1.26,1.78.12,3.4.08,5.15-.22,2.64-.46,9.41-.59,10.15-1.25.64-.58,1.48-1.22,2.28-1.27,1.5-.1,2.94-.4,4.21-1.37.22-.16.71-.28.85-.16.26.23,2.64-.13,3.15,0,1.05.28,2.16.69,2.99,1.36.59.48.75,1.48.86,2.97,1.55,0,3.1,0,4.65,0,3.47.02,6.94.08,10.41.04.73,0,3.99-2.98,5.84-2.13,1.31.6,5.28.1,4.68-.25,2.16-.72,4.22-1.48,6.34-2.06.45-.12,1.1.44,1.63.72,2,1.07,4.64.53,5.69-1.49.43,1.13,5.08,0,7.77.24.92.08,1.84.01,2.94.01-.08.23,6.79-.41,9.86-.41,2.77,0,5.53.36,8.3.48.5.02,1.04-.29,1.53-.52.35-.16.68-.66.95-.62,2.44.39,4.86.86,7.28,1.3.5.09,1.06.35,1.5.23,2.65-.73,2.65-.76,5.66.67-.03.74,8.82,2.23,9.2,1.08,1.49,2.25,12.16-1.25,14.42.25-.76,1.85,11.29,1.31,14.71.86-.26.71,2.48.49,3.32-.1,2.08-1.47,8.02.32,7.64-.1,3.58-.16,21.07,2.1,22.84,2.06.9-.02,1.8-.07,2.69-.14.31-.02,5.59.02,7.83.82,1.91.68,11.86,1.86,12.95,2.99l-.06-.07c-.36.11,2.91,5.71,3.25,5.7,1.91-.02,2.12,1.54,3.07,2.63,1.34,1.55,3.57,2.4,5.55,3.27,1.23.54,2.7.53,4.05.8.3.06.71.19.83.42,2.15,3.87,5.34,7.04,7.36,10.99,1.23,2.42,2.61,4.78,3.64,7.28.32.78-.31,1.94,0,2.64.83,1.14,1.66,2.29,2.57,3.53-.43.49.53,4.84,1.01,6.69.45,1.74,1.36,6.33,2,6.87-.69.64-.61,2.61-.12,3.17.42.48.73,1.05,1.1,1.58-.57.38-1.91,2.09-1.83,2.69.28,2.07.45,4.17,2.44,5.5.15.1.16.81.02.89-3.03,1.86-.57,4.15-.52,6.24.01.4.05.79.08,1.3-.73.39-4.2,2.39-5.24,1.85-.83-.43-1.54-1.17-2.11-1.92-.17-.22-.1-5.86-.66-8.04,1.04-.23.52-1.45.32-1.91-.38-.89-.47-2.37.05-3.08,1.29-1.77.94-2.84-.86-3.73,1.47-2.17.75-4.21-.16-6.28-.27-.62-.21-1.37-.36-2.05-.36-1.58-.67-3.17-1.15-4.71-.52-1.65-1.3-3.23-1.81-4.89-.26-.85-.19-1.8-.24-2.41-1.15-.75-2.22-1.45-3.29-2.15.11-.24.23-.49.34-.73.8.25.89-1.74.42-2.24-2.44-2.64-5.06-5.06-7.96-7.19-.42-.31-.47-1.11-.69-1.69.25-.18-1.9-2.34-3.56-3.48-.43-.27-1.14-.66-1.8-1.13-.44-.31-.81-.72-1.01-1.32-2.46-.34-3.85-3.81-4.7-3.34-.1-.48-.2-.92-.23-1.07-1.53-.45-2.93-.86-4.72-1.38.83-.94-1.86-1.83-3.44-2.4.71-.28-3.82-4.31-7.47-3.76-2.04.31-4.03.13-6.12-.85-1.55-.73-3.73-.18-5.62-.05-1.25.09-2.49.45-3.9.71v-3.83c-.14-.02-.51.9-.56,1.39-.28,2.57-1.73,3.66-4.11,2.66-1.56-.65-2.5-.09-3.72.6-.64.37-1.81.45-2.43.11-1.9-1.04-3.5-1.52-5.7-.38-1.96,1.02-9.68.68-10.97.95-.7-1.27-4.15-4.19-5.98-3.06-1.31.81-3.45.31-5.21.39-.87.03-1.74,0-2.61.06-1.87.15-5.32.54-5.95.75-1.21.4-4.88-.38-4.94.46-3.31-1.36-6.21-2.58-9.76-1.02-1.07.47-4.8-1-4.74-.27-3.19-.21-6.75.44-9.8-2.1-.27.39-.53.76-.79,1.14-.38-.36-.75-.7-1.18-1.11-.5.76-.81,1.47-1.33,1.98-.86.84-1.74,1.54-3.15.72-.62-.36-1.62-.06-2.22-.06-1.08-.72-6.12.14-6.12.33-5.84.89-11.89-.03-17.27,3.35.39-.42-9.42.23-10.32-.05-1.41-.45-2.56-.75-2.36.77-2.01,0-3.99-.15-5.93.05-1.68.17-4.42-.79-4.71.03-.99-.51-1.92-1-2.78-1.45-1.27.28-2.72.61-4.4.98,1.12-2.69-9.45-.59-8.92.32-.12.15-.24.31-.37.46-.99-.36-3.48-.03-3.58.29-1.5-.45-2.91-.88-4.45-1.34-1.68,2.45-3.84.74-5.92.57-2.15-.18-4.32-.04-6.54-.04.21.19.49.44.93.84-.41.22-.73.54-1.05.54-1.61-.01-3.24-.26-4.83-.12-1.1.1-2.2.6-3.22,1.09-3.28,1.58-9.11-.34-9.23.44-1.47.13-3.26.1-4.96.49-1.17.27-2.37.96-3.28,1.76-2.05,1.81-5.43,2.61-5.12,6.41.03.36-1.21.82-2.12,1.39-.28.7-.68,1.93-1.25,3.07-1.32,2.67-2.79,5.26-4.05,7.95-.71,1.51-.99,3.23-1.76,4.7-.41.79-1.45,1.25-2.26,1.91.41.08,1,.19,1.92.37-1.13,3.66-2.28,7.21-3.32,10.79-.36,1.24.79,2.34.03,3.9-1.93,3.98-1.08,8.43-1.33,12.68-.14,2.41-.17,4.83-.18,7.25,0,.77.38,1.57.29,2.32-.27,2.26-.76,4.49-.75,6.79,0,.31.55,3.04.52,4.16-.11,4.9-.52,9.8-.72,14.7-.17,4.13-.14,8.26-.3,12.39-.06,1.57-1.15,8.9-1.25,11.37-.09,2.09.26,4.19.42,6.36-.97.05-.56,9.18,2.27,9.46,1.45.14,1.62,3,.36,4.11-2.85,2.51-.12,7.71,1.07,8.46-.53,1.29-1.11,2.7-1.72,4.18.99,1.91-.25,4.59,1.54,6.57,1.25.35,4.27,3.5,6.18,3.99-2.26,1.69-1.31,7.96-.48,8.85-.88-.07-1.2,3.75-1.19,3.75.45,2.78.9,5.34,1.28,7.91.5,3.37,1.77,6.91,1.18,10.09-.55,2.93,1.06,10.77.88,12.65-.25,2.6-1.04,5.96,1.91,7.95.86.58,2.2,1.3,2.82-.57.19-.56.59-1.06.83-1.47-.72-1.17-1.47-2.28-2.07-3.46-.17-.35.01-.96.19-1.38,1.12-2.71,3.86-.47,5.53-1.68.05-.04,1.23,1.11,1.53,1.85,1.13,2.79,1.69,5.91,3.28,8.37,1.33,2.07,3.85,3.34,5.75,5.08.58.53.83,1.41,1.1,1.9,1.18.65,2.44,1.09,3.31,1.93.48.47.7,1.84.36,2.41-.93,1.58-.57,2.64.69,3.72.36.31.79,1.06.66,1.28-.28.45-.97,1.03-1.4.95-1.82-.31-3.66-.68-5.38-1.32-2.7-1.02-5.38-2.15-7.93-3.5-.83-.44-5.36-7.23-5.18-7.94.61-2.48-2.7,5.44-2.95,5.41.85,1.26,1.72,2.54,2.59,3.82-.22.25,5.12,9.68,6.27,9.61,0,1.3.32,3.01.47,2.86,1.24,1.11,2.37,2.36,3.73,3.29,2.49,1.71,5.09,3.25,7.68,4.81.98.59,2.78.3,2.32-.28,1.21-.2,4.04.33,4.43.41,2.97.57,5.92,1.3,8.91,1.75,2.08.31,4.21.23,6.32.39.7.05,1.38.33,2.09.6,1.32.18,2.66.29,3.96.57,1.76.39,3.48.95,5.23,1.37,3.03.72,6.06,1.49,9.13,2.01,1.53.26,3.16.13,4.72,0,1.36-.12,2.7-1.08,3.98.34.2.22,1.03-.11,1.56-.23,1.18-.26,7.59.83,8.15.77.02.46.04.92.05,1,1.84.46,3.63.89,5.42,1.36.99.26,2.01.89,2.95.78,4.1-.47,7.99,1.22,12.03,1.02,1.77-.09,3.53-.44,5.82-.74.84.26,2.29.71,3.73,1.17.01-.2.02-.39.03-.59.85.05,1.69.09,2.54.14,1.45.08,3.1.64,4.32.15,2.35-.96,4.46-.66,6.7,0,.46.14,1.03-.08,1.55-.16,1.85-.29,3.97-1.57,4.8,1.54.08.31,1.15.35,2.15.62-1.02-2.41-.14-3.28,1.81-3.47,1.63-.16,3.38-.89,4.86-.52,5.16,1.27,10.01-1.59,15.14-.78,3.15.5,6.43.42,9.64.27,2-.1,3.96-1.17,5.95-1.21,3.09-.06,6.01-.58,9.03-1.22,3.2-.69,9.28-1.01,8.87-1.27v-.49c2.47,0,4.95,0,7.42,0,.31,0,5.38-.99,7.66-1.32,2.17-.32,4.32-.89,6.5-1.07,1.46-.12,10.2,2.3,12.35,1.99,1.29-.19,2.55-.61,3.78-1.06.28-.1.28-.83.51-1.2.7-1.08,1.22-2.58,2.23-3.12,5.43-2.9,9.37-7.41,12.41-12.45,1.83-3.04,2.75-6.91,2.02-10.47,5.19-3.73,4.01-9.05,4.03-14.08.43-.02.87-.04,1.38-.07-.06-.3-.03-.59-.16-.72-1.28-1.31-1.2-2.55-.61-4.32,1-2.99,1.04-6.11.24-9.33-.5-2.03.06-4.34.2-6.52.09-1.39.26-2.78.47-4.16.12-.79.73-5.04.58-5.01.26-.69.71-1.38.73-2.08.07-2.07,0-4.14-.05-6.21-.04-2.13-.03-4.27-.19-6.4-.2-2.59-1.21-5.3-.71-7.72.69-3.37-1.03-6.35-.58-9.53.15-1.05.66-2.06,1.02-3.15-2.14-1.45-1.97-4.85.75-7.93-2.21-.67-2.56-2.1-2.17-4.24.48-2.61-.1-5.52.81-7.92.75-1.98-.76-4.09,1.13-6.04.85-.87-.11-3.37.02-5.11.15-1.97.46-3.95.96-5.86.59-2.27,1.45-4.46,2.17-6.7.17-.52.28-1.07.35-1.61.57-4.16,1.15-8.3,3.45-11.98.29-.47.03-1.31-.02-1.97-.13-1.61.27-9.03-.78-9.58,1.36-.15,2.25-1.61,1.7-2.07.2-.43.41-.94.65-1.42.54-1.05.91-2.29,1.73-3.06.6-.56,1.84-.78,2.72-.65,1.89.29,3.45,4.75,2.21,6.08-.19.2-.75.07-1.13.09-.08,2.33.77,4.74-1.53,6.68-.61.52-.23,2.22-.33,3.83-.19.03-2.3,2.79-.09,2.26-.98,1.53-1.57,7.11-2.12,8.81-.33,1-.37,2.11-.45,3.17-.04.5.32,1.08.18,1.52-.98,3.16-2.24,6.24-2.99,9.45-.39,1.67-.03,3.55.21,5.31.19,1.43-1.95,9.4-.2,9.24,0,1.94.41,8.49-.06,8.65v5.26c-.51-.36,0,6.94-.15,9.38-.04.58.5,1.2.83,1.93-.66.75-.92,3.92-.26,4.54-.1.2.99,2.96-.37,4.48-.55.62.92,3.09,1.68,3.24,0,.12.01.23.02.35-.82.1-.01,5.49.7,5.16ZM216.15,323.77c-.88,0-1.69-.18-2.37.05-.77.26-1.49.81-2.09,1.38-.12.11.28,1.19.61,1.29,1.34.43,2.75.67,4.2.99-.16-1.62-.26-2.67-.36-3.71ZM247.34,51.71c-.07-.26-.14-.52-.21-.78-1.64.35-3.27.7-4.91,1.05.2,1.55,2.81,3.37,4.45,3.06-.65-.75-1.27-1.46-1.95-2.25,1.07-.44,1.85-.76,2.62-1.08ZM88.76,54.42q-5.24.01-5.51,1.08c1.05.27,2.05.57,3.08.77,1.36.26,2.65.32,2.42-1.85ZM221.62,57.39c1.1-.63,1.86-1.07,2.95-1.7-.65-.71-1.25-1.6-2.08-2.14-.26-.17-1.65.63-1.64.97.02.98.49,1.94.77,2.87ZM41.53,193.38c-2.9.29-.23,2.38-.97,3.56.89-.48,1.78-.96,2.73-1.47-.72-.86-1.24-1.48-1.76-2.09ZM176.2,53.26c1.43,2.06,4.5-1.18,5.05,2.2.05-2.61-1.14-3.13-5.05-2.2ZM40.89,189.75c1.8-.43,3.03-.73,4.56-1.09-1.81-1.25-3.14-1.5-4.56,1.09Z"/>
      <path class="cls-1" d="M187.17,114.2c.1,1.09,3.54,3.69,5.33,4.01.77-1.11,3.36-.85,4.41.5,1.33,1.72,2.65,3.58,5.34,2.25.32-.16,13.73,1.87,14.3,2.28,2.4,1.75,5.43.97,7.9,2.24,2.7,1.39,5.38,2.81,8.11,4.12.86.41,1.88.47,3.03.75-.52.67,8.86,7.53,9.51,7.62-1.13,2.15,9.03,11.32,9.45,11.78,1.79,1.99,4.57,3.69,5.17,5.98.69,2.62,2.82,3.81,3.69,5.96.12.29-.5.89-.82,1.41.82.28,1.61.56,2.68.93-.96.66.41,2.97.02,3.32.55.92,1.45,4.24,2.15,4.53-.2.32,1.09,4.83,1.34,5.36.54,1.14,1.37,2.53,1.12,3.59-.44,1.87.47,2.86,1.46,4-.9,1.19-.77,2.07-.09,4.23.33,1.05.15,2.31,0,3.46-.3,2.33-.89,4.63-1.01,6.97-.04.8-.56,11.93-1.6,11.93.31,1.43.81,2.68.79,3.92-.02,1.21-.57,2.41-.9,3.61-.1.37-.46.85-.34,1.06,1.82,3.12-.15,6.08-.62,8.99-.28,1.73-2.55,5.52-2.48,5.57-1.05,1.84-1.89,3.48-2.87,5.02-.59.93-1.21,2.1-2.12,2.5-2.04.92-1.89,2.87-2.91,4.05-1.62,1.37-3.24,2.74-4.41,3.74-.42.93-.51,1.64-.88,1.86-3.39,2.04-6.7,4.25-10.28,5.91-4.3,2-8.78,3.66-13.29,5.16-2.3.76-4.81.98-7.25,1.18-3.84.32-7.73.24-11.56.68-4.52.51-8.99,1.39-13.48,2.09-.46.07-15.46-1.31-19.11.76-.26-.5-4.2-3.7-6.07-1.62-.04.04-2.28.22-2.88.91-.61-.79-5.67-4.4-7.98-2.68-.08.06-.4-.02-.44-.11-.77-1.78-3.71-.74-4.02-3.1-.02-.13-.19-.29-.32-.34-2.91-.9-5.82-1.8-8.74-2.67-.36-.11-.97.11-1.13-.09-2.53-3.16-6.67-3.56-9.72-5.78-1.04-.76-2.17-1.67-2.7-2.79-1.05-2.17-3.66-2.36-4.78-4.98-1.4-3.28-4.84-5.67-7.3-8.53-.67-.78-.91-1.92-1.48-2.8-.78-1.22-1.6-2.45-2.58-3.52-.98-1.07-1.69-2-.68-3.44.17-.25-1.51-.35-1.91.19-1.38-1.07-3.24-7.36-3.76-8.43-.59-1.22-.32-2.86-.44-4.31-.03-.31-.01-.71-.19-.91-2.74-2.97-.75-6.52-1.16-9.77-.28-2.23.11-4.56.31-6.83.05-.58-.88-5.52-1.07-7.71-.02-.24.83-.56,1.43-.94-.45-.86-1.03-1.98-1.7-3.27.84-.22,1.23-7.48.62-7.89.55-.35.63-2.1.49-2.23.43-1.87.82-3.57,1.21-5.27-.14-.02-.29-.03-.43-.05.46-.64,1.4-1.36,1.31-1.91-.27-1.68-1.06-3.3.83-4.58.09-.06.53-4.21.58-5.14.04-.74.99-1.43,1.75-2.41.04.05-.3-.33-.56-.62,2.43-3.04,7.33-14.02,9.58-14.24.38-.04.46-1.5.98-2,3.1-2.96,6.17-6.03,10.62-6.95.23-.05.51-.13.63-.3,3.54-4.75,9.14-5.67,14.19-7.44,4.23-1.48,8.68-2.33,13.02-3.52.76-.21,1.42-.76,2.17-1,2.27-.7,4.4-2.46,7.01-1.01.31.17,1.08.18,1.13.05.93-2.25,3.75-1.45,3.73-1.6,1.98.36,10.42-1.95,10.72-1.68l-.05-.05ZM240.78,244.11s10.19-8.1,11.14-9.92c.82-1.58,2.82-4.22,2.71-5.08.87,0,1.36-1.61,1.53-2.18,1.04-3.51,2.26-6.97,3.25-10.5.8-2.87,1.89-8.97,1.92-9.48.12-1.73.57-3.45.95-5.16.02-.11.41-.14.63-.22.57-.19.92-1.78.37-2.07-2.43-1.27-.51-3.5-1.1-5.17-.06-.16-1.56-11.83-2.01-15.45-.23-1.82-2.57-7.79-3.2-10.36-.79-3.19-1.8-6.43-3.36-9.3-1.62-2.99-3.99-5.57-6.06-8.31-.22-.29-.64-.43-1.09-.72.82-.4-1.19-1.83-2.36-2.73-2.05-1.58-3.95-3.35-5.88-5.07-.52-.46-.86-1.12-1.37-1.59-1.65-1.54-2.61-3.97-5.3-4.18-.7-.05-1.41,0-1.49,0-.77-.91-4.99-3.31-5.49-3.37,0-.77-2.57-2.21-3.72-1.92-1.91.47-4.34-1.81-5.19-1.59.07-.82-5.82-2.07-7.44-1.53-2.88.96-9.96.09-13.04-.05-1.3-.06-2.62.1-3.91-.02-4.61-.43-9.2-1.01-13.81-1.38-1.84-.15-3.71.2-5.57.15-1.86-.05-3.71-.31-5.57-.47.05-.44-6.21-.19-8.19,1.01-.06.04-8.78,2.1-8.71,2.37-2.67.77-10.66,5.6-9.56,5.77.04,0,.12.91-.07,1.05-.76.54-1.89,1.52-2.38,1.29-1.9-.89-2.79.4-3.95,1.31-.43.34-.99.5-1.49.75-.1-.14-4.99,3.98-7.95,7.57.41,2.57-4.6,18.12-4.19,20.24-.48-.15-1.65,6.75-1.42,6.96-.35,2.75-.63,5.15-.97,7.54-.31,2.18-.68,4.34-1.02,6.51.18.05.5,2.66.45,3.3-.18,2.47-.33,4.74.43,7.31.59,1.99-.22,7.33.32,7.52-.74,1.24-.69,2.88-.1,2.49.82,3.81,1.58,7.36,2.23,10.42.81.91,1.43,1.46,1.87,2.13,1.01,1.53,1.77,3.24,2.91,4.67,2.3,2.88,3.83,6.31,6.49,8.93.32.32,3.64,4.44,4.71,6.28,1.51,2.59,4.2,4.64,6.72,6.45,2.94,2.12,17.03,8.16,20.86,9.4,6.68,2.16,13.54,3.77,20.56,3.66,7.37-.11,14.73-.87,22.08-1.51,2.39-.21,4.75-.86,7.1-1.4,3.12-.72,6.59-.9,9.25-2.45,3.9-2.28,8.39-3.51,11.81-6.67,2.07-1.91,4.45-3.49,6.68-5.22Z"/>
      <path class="cls-1" d="M14.67,116.06c-1.72.78-.79,3.18-.02,3.37l-.08,1.11c-1.11,0-1.47,16.39-.64,16.77-.25,2.46-.07,5.52.79,6.25,0,0-1.34,2.68-.91,3.24-.38.25-.45,3.1.73,3.1-.73,1.63-.96,6.63.15,7.06-1.28.24-.2,3.77-.09,7.09-1.1.57-2.02,3.38-1.12,4.7-1.4-.44-.28,3.54-2.02,4.33-1.65.76.4,2.33,1.16,1.95,1.17,3.6-2.06,9.02-1.99,9.06-.65,1.9-1.23,3.56-1.86,5.4.79.07,1.24.11,1.13.1.81,2.46.92,8.54,1.91,9-.06.2-.13.4-.19.6-.83.08-.78,3.39.18,5.06-.57.36-1.48.95-2.4,1.53.2.26,1.88.77,2.78.77-.26.82-.29,1.69-.73,2.2-2.01,2.38-1.95,3.05.11,4.38.07,1.29.24,2.12.14,2.92-.24,1.86-.61,3.7-.89,5.31.35,2.6.68,5.1,1.1,8.26,0,0-.6.37-1.64,1.01,1.15.39,1.74.59,2.28.77-.31,1.09-.61,2.18-.92,3.27.18.1.35.19.53.29-.55.24.6,5.41-1.45,7.98.09.07.31.26.53.45.71.62,1.42,1.25,2.13,1.88-.65.49-2.5,7.28-2.31,7.58-1.13,1.73-1.89,5.88-1.26,6.42-.1.22-.6,3.45,0,4.81-.5.15.17,11.18.75,12.42.13.29,0,1.02-.15,1.07-.63.18-.78,3.69.33,4.11-1.75,3.85-1.98,7.78-.8,7.6.13,2.12.97,9.18,1.95,9.66-.24.16.58,1.26.34,1.42.55,1.71.04,2.47.55,4.05-.6.89.37,2.72,1.26,2.63.09.23.18.46.26.69-.57.42-.71,1.86-.03,2.27.53,1.02.2,1.83,1.49,2.21-.64.74.78,3.28,1.55,3.47,1.96,3.19.53,3.62,1.22,5.57-.88.56-1.71,1.34-2.69,1.65-1.46.46-3.07.94-4.55.77-1.91-.22-2.92-1.83-2.47-3.69.25-1.06.29-2.72-.25-2.64-.25-.94-.44-1.66-.67-2.51.71,0-.92-3.83-2.15-5.88-.34-.57-.38-1.58-.13-2.21-.81-2.69-.88-3.37-1.63-4.7,1.22-2.81-5.44-14.11-3.15-18.55l.07-.61c1.58-1.09,1.8-3.46.55-3.12-.74-2.92,1.31-6.68.54-7.31.33-.65.67-1.26.97-1.9.26-.57-.2-2.31-.72-2.59,0-.32-.05-.59,0-.61,1.92-.76,1.13-2.47.67-3.32-.74-1.34-1.12-2.25-.01-3.55.43-.5.76-4.46-.91-4,1.52-3.42-.26-3.75.41-6.83.07-.31.24-.63.22-.93-.27-3.31-.66-6.62-.81-9.94-.09-2.09.27-4.2.24-6.3-.01-.87-.51-1.74-.26-2.48.25-1.48.73-2.97.68-4.44-.06-1.59-.62-3.17-1-4.94.46-.12,1.25-.33,2.21-.58-.74-.88-1.69-1.56-1.95-2.44-.2-.71.43-1.67.55-2.54.14-.76.29-1.51.47-2.47-1.96-1.04-1.39-3.32-1.51-5.26-.11-1.74,2.11-2.44,1.64-2.89-.43-.41-1.41-.24-2.61-.38.41-1.13,1.17-2.36,1.24-3.64.13-2.19-.16-4.41-.3-6.61-.05-.84-.34-1.69-.25-2.51.24-2.38.61-4.75.92-7.04,1.48-.07.51-1.61-1.44-2.23.46-1.53.77-5.56.2-5.84.02-.18,1.09-3.25-.01-4.97,1.96,0,2.15-2.95,2.23-3.2.11-.36-2.27-1.78-1.85-4.39.09-.53.04-1.09.03-1.63,0-.44-.05-.89-.08-1.36,2.49.32.39-4.57-.04-6.03.57-.16-.49-2.08-.54-2.26,1.39-.35,1.62-2.14.13-2.32-1.24-2.85,2.86-7.35,2.51-7.61.68-.61-.57-5.51-1.82-5.58-.08-.2.17-5.15-.42-5.99.6-.05.54-11.67-.8-11.09.59-1.51,1.03-2.64,1.64-4.21-.24-1.26-.2-7.58-1.27-8.89.5-.34,1.27-10.73.3-12.7-.71-1.44.93-4.4-.24-4.89-.03-.25-.06-.5-.1-.75.9-.21,1.79-.42,2.91-.68-2.67-2.48-1.47-6.09-.8-8.72.63-2.51,1.15-8.55,1.51-9.45-.34-.25-.93-.68-1.29-.94,1.17-2.63,2.24-5.05,3.39-7.65-.34-.69,2.54-13.47,1.93-15.66-.17-.6.14-1.9.49-2,2.48-.73,3.11-8.07,3.58-9.35,1.04,0,2.58-1.08,2.35-1.16-.55-2.46,6.05-9.23,6.35-11.07.92,1.03,10.54-5.65,13.59-6.84,1.01,1.24,1.97.25,1.69-.52-.03-.08,5.1-3.22,8.15-3.55-.41.76,3.74.52,5.95.05.95-.2,1.82-.78,2.75-1.13.47-.18,1-.21,1.56-.06q2.22-1.91,6.49-1.79c.11.84,4.88-.47,4.61-.66,2.89-.38,6.05-.79,9.21-1.2,2.07.07,1.94,2.47,2.12,1.3,1.01,1.65,4.14,4.41,4.9,4.29-.49,1.18-.98,2.06-1.21,3.01-.21.87-23.62,7.38-26.65,6.92-1.14-.58-9.47,7.25-11.22,8.74-.84.71-2.89,0-4.37-.39-2.53.93-9.11,3.7-9.91,4.81-.79,1.9-1.8,4.3-2.76,6.59-1.17.05-3.54,4.96-3.44,5.14.91,1.61.46,2.72-1.16,3.49-1.38.65-1.97,1.37-.89,2.98.82,1.22-2.03,5.73-2.13,5.93-.86-.2-2.71-.33-2.78-.2.41.44.75.97,1.23,1.31,1.38.99,1.11,1.99.4,3.29-.46.84-.35,1.97-.64,2.93-.21.68-.63,1.3-1,1.93-2.25,3.81-1.64,8.07-2,12.19-.08.9-.84,1.74-1.74,2.23.48,1.09.82,2.26,1.46,3.25,1.51,2.35.65,2.3.48,3.35.05.24-.15,2.49-.18,3.4-.33.76-.21,1.01-.67,1.35-.6.44-1.37,11.41-1.24,11.24.86,1.49,1.51,2.61,2.16,3.74,0,0,.29,4.5,1.14,7.33ZM6.01,147.42c0-.24.02-.48.03-.72H1.9c1.33,2.65,2.81.51,4.11.72Z"/>
      <path class="cls-1" d="M288.05,86.09c-4.15,5-10.99,4.02-15.97,7.82,1.6-.17,3.2-.36,4.81-.49.68-.05,1.37.05,2.23,0,1.04,0,2.09-.04,3.13.05.11,0,.16.73.26,1.2.45-.23,1.01-.51,2.01-1.03-.32,1.01-.5,1.55-.75,2.33,5.37.84,10.75,1.68,16.13,2.53-.02.27-.03.54-.05.82-.37.17-.73.34-1.1.5.47.91.95,1.82,1.51,2.91.37-.29.8-.62,1.45-1.12.43,2.15.58,4.46,3.27,5.65.07.65.46,1.85.27,2.95-.36,2.01-1.07,3.95-1.61,5.92-.49,1.77-.72,3.66-1.46,5.32-1.84,4.08-4.11,7.86-8.51,9.75-.2.08-.25.47-.4.7-.3.45-.53,1.11-.95,1.28-2.19.87-4.37,1.88-6.66,2.35-5.16,1.07-10.18,3.62-15.67,1.75-2.52,1.35-4.71-.5-6.63-1.31-2.34-1-4.17-3.33-6.03-5.28-1.32-1.39-2.9-2.93-3.36-4.66-1.11-4.16-4.88-7.66-3.8-12.23.81-3.4,1.7-7.07,5.23-9.59-1.11-.64-1.99-1.15-3.34-1.92,6.64-6.04,14.15-10.24,22.08-13.23,4.28-1.61,8.65-4.52,13.91-2.96ZM280.77,100.89c-1.7-1-3.96-.9-5.51-.91-3.48-.02-6.86-1.23-10.58.33-2.69,1.13-3.39,3.37-4.77,5.07-1.38,1.7-1.68,4.41-2.09,6.73-.3,1.67-.46,3.63.13,5.14.89,2.27,2.49,4.27,3.78,6.38-.3.12-.58.22-.86.33.05.23.09.46.14.7.95-.09,1.91-.17,2.68-.24,1.35,1.77,2.66,3.49,4.05,5.32.48.05,1.34.04,2.15.23,3.94.94,7.78,2.11,11.98,1.22,3.21-.67,6.24-1.66,9.13-3.15,1.83-.94,7.7-7.26,6.55-8.72-1.1-1.4.98-4.36.98-5.87-1.55-1.82-1.73-3.39-2.03-4.97-.93,0-.75-1.7-2.13-1.7.51-.97-1.56-2.29-1.51-2.38-1.24-.96-3.47.2-4.48-.59-2.09-1.63-4.31-5.08-7.6-2.93Z"/>
      <path class="cls-1" d="M71.06,244.32c-.7.36-1.39.72-1.92.99-.57-1.42-1-2.47-1.52-3.77.08-.19-1.04-2.83-.24-4.78.28-.68-.6-1.45-.99-2.72-.07-.22-.27-1.37-.7-2-.06-2.41.43-3.7.51-5.07.89-.34,1.05-3.37,1.5-5,.18-1.42.74-3.07.32-5.69-.1-.64,1.15-2.75,1.09-2.82.24-.44.16-2.58.53-2.61.81-.09,1.78-.41,1.8,2.13,0,.28.56,2.88.72,3.16,1.28,2.27.45,3.59.71,6.32.06,1.34-1.27,7.26-.79,7.58-.31,1.87-.62,3.75-.96,5.83.19,1.48.42,3.36.64,5.07-.68.88-.75,3.15-.7,3.38Z"/>
      <path class="cls-1" d="M260.47,24.32c-1.26-.19-2.18-.32-3.1-.46.77-.77,1.55-1.55,2.39-2.39,1.56.6,2.69,1.04,3.9,1.51,2.06-2.6,7.55-.81,10.21-2.4.17.16.35.31.52.47-.68.26-1.36.52-2.64,1.02,6.47.81,12.52,1.56,18.69,2.33-.55.18-1.01.34-2.05.69,2.74,0,4.94-.11,7.06.03,2.09.14,3.93.46,2.17,1.85-.61.49.24,1.36.25,2.05.01,1.06-.97,1.33-3.23,1-8.18-1.2-16.4-2.35-24.65-3.45-1.79-.24-3.8-.06-5.64-.23-2.4-.23-5.25-.42-3.88-2.02Z"/>
      <path class="cls-1" d="M285.87,266.21c1.15-1.58,1.78-3.19,2.47-4.08,1.07-1.16,2.35-3.53,2.24-3.62,1.02-.26,2.6-.49,3.73.45.11.13.42,1.16.32,2.38-.56.46-1.52,6.26-2.67,7.08-2.09,4.5-3.35,7.46-5.14,11.32-1.37,0-2.57.32-3.42-.09-.94-.44-1.56-1.55-1.99-2.65.63-3.74.89-10.56,4.45-10.79Z"/>
      <path class="cls-1" d="M337.18,98.93c.13.41.38.76.29.97-.28.69-.69,1.33-1.04,1.99-.63-.41-1.75-.75-1.81-1.23-.55-4.31-.92-8.65-1.33-12.98-.11-1.1-.19-2.2-.35-3.99.79-.89,1.32-.81,3.25.41,2.59,1.63,1.59,4.76,3.81,6.21.21.14-.54,1.76-.97,3.08,1.29,2.73.87,4.59-1.85,5.53Z"/>
      <path class="cls-1" d="M279.18,290c-2.03,3.7-6.17,8.51-11.07,9.44-3.36.97-12.92.36-16.47,1.38-.47-.39-11,1.46-11.97.66,2.97-1.82,26.34-11.83,30.1-11.13l9.94-6.87c1.39-.49.18,5.22-.53,6.51Z"/>
      <path class="cls-1" d="M113.05,75.78c.39.33,2.47,1.63,2.23,2.3-.3.84-5.7,1.62-6.86,1.75-4.68.53-11.91,2.08-14.34,2.4-.22.03-6.78.04-8.8.62-1.19.34-10.49,6.35-9.55,6.7-1.67.54-1.09,4.38-3.19,7.81-.62,1.01-1.88-1.58-2.07-2.71-.34-1.94-.26-3.4-.16-3.68,1.74-4.88,4.17-5.53,5.95-7.71.09-.1,2.92-3.19,3.45-3.63.5-.41,1.14-.56,1.3-.61l20.63-1.57c.41-.03,11.09-1.93,11.39-1.69Z"/>
      <path class="cls-1" d="M69.64,322.53c-1.13,1.47-2.14,2.78-3.71,4.83-4.56-3.4-15.98-2.29-14.96-8.47,6.29,1.22,11.92,2.32,18.67,3.64Z"/>
      <path class="cls-1" d="M295.59,246.89c.38.32,1.94,7.23,2.56,7.76-.68.41-1.42.68-1.93,1.19-2,2-2.11,2.01-3.34-.3.31-.85-.12-8.05,2.71-8.65Z"/>
      <path class="cls-1" d="M13.53,108.72l.46,3.8c-.16.13-.32.27-.49.4-.67-.52-1.35-1.03-2.02-1.55.68-.88,1.37-1.76,2.06-2.65,0,0-.02,0-.02,0Z"/>
      <path class="cls-1" d="M57.55,19.34c1.36-.4,2.71-.82,4.09-1.14.11-.03.6.72.52.86-.2.33-.63.68-.99.71-1.12.09-2.25.03-3.37.03-.08-.15-.16-.3-.24-.45Z"/>
      <path class="cls-1" d="M172.29,175.04c-.82-.27-2.42.05-2.38.16-2.52.67-5.12,1.43-7.75,2.02-.7.16-6.08,8.96-4.52,10.87.16.19-1.26,1.66-1.86,2.43-.98-1.54-1.98,5.61-.66,7.17.49.59.24,4.69-.57,5.32,3.46,5.62,6.71,9.12,13.43,10.07-.14.44,1.16,1.12.99,1.67,8.28,4.66,16.41,2.12,24.25,3.13.55-.44.97-1.06,1.42-1.08,2.74-.15,5.51.07,8.2-.32,1.16-.17,2.11-1.57,3.22-2.31,1.57-1.05,3.2-2,4.96-3.09,0-.39,9.1-13.63,6.92-15.98.92-.56.37-.27-1.11-2.52-.37-.82.05-.79.58-1.03,1.71-.78,4.35.26,5.72-1.65.2-.28.9-.7,1.22.74-.16,1.48.54,10.06.62,11.47-.77,1.3-2.1,2.17-2.14,2.18-.49,2.46.26,2.89-.37,4.99-.11.37-1.85,1.59-2.71,2.41-.92.27-2.71,3.23-4.16,3.77s-1.35,1.74-1.73,2.81c-2.48,2.12-4.68,3.04-5.95,4.89-.17.06-1.06,1.34-1.23,1.4-1.27.16-1.56-.21-2.93,1-2.82-.84-2.89,1.1-4.85.83-1.98-.27-4.17.03-6.08.64-1.69.55-15.97,3.15-19.49.73-1-.69-10.72-3.75-12.15-5.66-1-1.34-3.41-4.82-3.78-5.56.52-.82-5.65-3.62-7.46-7.23.51-.34,1.26-.82,2.35-1.54-1.39-.07-2.23-.11-3.07-.15.29-.61-1.78-3.18-1.86-4.26.41,0-1.07-11.89.96-12.61-.65-2.29-1.57-4.57-1.82-6.92-.09-.86,1.38-1.89,2.13-2.84.21.19,4.06-4.16,6.01-5.36-.29-.35-.66-.79-.63-.75,1.34-2.21,5.69-6.06,6.66-5.88.58.11,1.3-1.32,1.76-1.96.63-.88,1.75-1.39,2.65-2.08,1.02-.77,2.02-1.56,2.87-2.55l5.02-1.85c.03.11,1.01-.68,1.58-.85.36-.1,1.05.34,1.35.73,1,1.29,2.05,1.23,2.96-.11.29-.43,1.05-.84,1.54-.79,1.62.18,3.22.57,5.33.98.13,1.47.44,1.98,1.74,2.1,1.15.1,2.23,1.04,3.34,1.6-.1.24,2.77.37,4.08.83,1.43.49,13.45-.93,14.29.08-.33.68-1.06,1.48-.93,2.11.14.69,1.04,1.25,1.65,1.84.88.85,3.91,4.64,4.5,4.19.37.74.48,1.43.83,1.57,2.16.91,2.93,4,3.97,3.89.69,2.28,1.29,4.57,2.12,6.77.23.6,1.19.92,2.08,1.56-.86.33-1.37,1.41-.82,1.58.05.2.1.39.16.59-1.3.52-2.61,1.47-3.88,1.43-1.11-.04-2.18-1.21-3.54-2.05.63-.26-1.18-2.49-3.07-3.38,1.91-.54.35-1.14-.43-2.4-.22-.36-.7-.76-1.08-.79-2.18-.14-2.27-1.47-1.93-2.62-1.59-.74-2.99-1.4-4.5-2.11.57-.21-2.49-1-4.53-.8-.03-.14-1.76-1.35-4.12-1.68-2.59-.36-6.52.15-6.66.29-.99-1.03-4.33-1.15-5.24-.33-.07.06-4.45-.85-5.52-1.4-.87,1.32-1.9,2.31-3.72,1.08-.44-.29-1.49.33-2.27.52M181.72,168.03c2.18.98,3.53-.26,4.85-1.58-.09-.21-.18-.41-.27-.62-1.53.74-3.06,1.49-4.59,2.23.11-1.79-1.39-2.16-2.31-1.68-2.64,1.39-6.33-1.62-8.31,2.06,0,.01-.14-.07-.21-.07-2.26.1-4.04,1.22-5.75,2.63,1.14.15,2.2.03,3.21-.25,1.42-.38,2.95-1.51,4.17-1.21,3.38.81,6.27-.19,9.21-1.52ZM198.26,224.09c-1.85.26-3.08.44-4.32.61,1.13,1.95,1.6,1.94,4.32-.61Z"/>
      <path class="cls-1" d="M137.43,150.62c.69-.57,1.03-1.82,1.61-2.94.83-.9,1.78-.82,2.17-2.33,1.22-1.49,3.04-1.9,3.13,1.65.81,1.06.79,4.31.31,6.96-1.29,1.95-2.42,3.67-3.55,5.38-.11-.1-4.02,1.98-5.8,4.69-.74,1.94-.84,2.36-1.29,5.39-.06,1.14.24,5.86-.58,7.25-.5.84-.67,2-1.09,3.34-.02,0-.17,1.51-.82,3-1.42,1.56-1.87,1.87-3.2-.11-.3-.45-.65-1.09-.62-1.62.07-1.26.26-2.54.58-3.73.14-.54.57-4.63.77-4.97.69-1.17.93-4.35,1.15-6.47.02-.19.1-.61.21-.89,1.24-3.28,2.45-6.59,3.76-9.83.27-.66.91-1.06,1.37-1.6"/>
      <path class="cls-1" d="M162.17,137.14c1.99-.38,4.54-1.92,5.15-2.37,3.39-2.52,7.04-3.57,10.67-3.1,1.64.21,2.84,1.67,2.84,3.33v2.21c-.2,2.14-4.26,1.25-7.8,2.09-3.72.62-10.45,3.86-11.47,3.99-2.53-.09-2.27-.75-3.58-1.51-.57-.55-1.16-1.73-.74-3.22,1.07-1.07,3.65-1.07,4.92-1.42Z"/>
      <path class="cls-1" d="M243.49,186.01c.84,2.36,1.49,2.28,2.92,4.46.23,2.46-.48,3.72-.29,5.84-.45.66-.97,1.3-1.34,2-.32.6-.48,1.29-.73,1.99-.57.86-1.21,1.82-1.91,2.88-.34-.21-.96-.6-1.63-1.02.62-.71-.97-2.96,1.05-4.7.69-.59.33-2.32.63-3.48.26-1.01-.67-1.22-.98-2.78-.26-1.53-.27-3.93-.83-5.08-.15-1.48,1.9-.93,3.13-.12Z"/>
      <path class="cls-1" d="M225.52,241.96c-2.02,1.72-5.91,2.32-6.91,2.57-2,1.39-1.37,1.34-5.02,3.1-.94-.06-3.75.66-3.81.68-1.89.71-3.74,1.57-5.69,2.02-.66.15-1.68-.63-2.29-1.23-.19-.19.27-1.56.71-1.75,1.19-.53,2.55-.66,3.81-1.06,4.29-1.34,8.57-2.72,12.84-4.12.66-.22,1.22-.72,1.87-1.02,1.28-.59,6.72-1.02,4.51.81Z"/>
      <path class="cls-1" d="M243.19,209.38c-.54.81-1.86,4.57-1.17,5.17-.1.28-.91,3.8-3.07,5.4-1.01.49-1.89.17-2-.98.46-.78-.36-1.57-.02-2.78.93-1.63,1.77-3.27,2.77-4.8.45-.68-.86-2.47-.24-3.04.13.18,3.6.85,3.73,1.03Z"/>
      <path class="cls-1" d="M243.92,204.11c.55,1.67.5,2.27-.73,5.27-1.11-.08-1.86-.03-2.55-.21-.44-.11-.79-.54-1.18-.83.43-.18.2-1.64.16-2.31-.02-.36.58-2.13.96-1.96,1.23.02,2.28.03,3.34.04Z"/>
      <path class="cls-1" d="M245.59,240.81c1.67-1.54,2.66-.76,3.89.75h-3.04c.64.9,1.09,1.54,1.64,2.33-2.46.5-4.79,2.06-7.32.2-.01-.01,3.41-1.97,4.83-3.28Z"/>
      <path class="cls-1" d="M35.17,310.72c-2.46-3.2-6.78-6.29-7.08-6.19-.86-1.42-4.26-16.48-5.05-17.77.12-.19-1.56-2.83-.36-4.78.42-.68-.9-1.45-1.49-2.72-.1-.22-.4-1.37-1.06-2-.09-2.41.65-3.7.77-5.07,1.33-.34,1.58-3.37,2.26-5,.27-1.42,1.11-3.07.48-5.69-.15-.64,1.73-2.75,1.64-2.82.36-.44.24-2.58.79-2.61,1.21-.09,2.67-.41,2.71,2.13,0,.28-1.82,5.37-1.59,5.65,1.93,2.27-1.05,5.23-.66,7.96.09,1.34-.72,5.87,0,6.19-.46,1.87,2.28,1.02,1.77,3.09l3.98,17.03c-.53.45,7.89,9.13,10.83,16.8,1.02,2.65-6.23-1.95-7.96-4.2Z"/>
    </g>
  </g>
</svg>